<?xml version="1.0" encoding="utf-8" standalone="no"?>
<!DOCTYPE svg PUBLIC "-//W3C//DTD SVG 1.1//EN"
  "http://www.w3.org/Graphics/SVG/1.1/DTD/svg11.dtd">
<!-- Created with matplotlib (https://matplotlib.org/) -->
<svg height="345.6pt" version="1.1" viewBox="0 0 460.8 345.6" width="460.8pt" xmlns="http://www.w3.org/2000/svg" xmlns:xlink="http://www.w3.org/1999/xlink">
 <metadata>
  <rdf:RDF xmlns:cc="http://creativecommons.org/ns#" xmlns:dc="http://purl.org/dc/elements/1.1/" xmlns:rdf="http://www.w3.org/1999/02/22-rdf-syntax-ns#">
   <cc:Work>
    <dc:type rdf:resource="http://purl.org/dc/dcmitype/StillImage"/>
    <dc:date>2020-10-22T22:39:19.685048</dc:date>
    <dc:format>image/svg+xml</dc:format>
    <dc:creator>
     <cc:Agent>
      <dc:title>Matplotlib v3.3.1, https://matplotlib.org/</dc:title>
     </cc:Agent>
    </dc:creator>
   </cc:Work>
  </rdf:RDF>
 </metadata>
 <defs>
  <style type="text/css">*{stroke-linecap:butt;stroke-linejoin:round;}</style>
 </defs>
 <g id="figure_1">
  <g id="patch_1">
   <path d="M 0 345.6 
L 460.8 345.6 
L 460.8 0 
L 0 0 
z
" style="fill:#ffffff;"/>
  </g>
  <g id="axes_1">
   <g id="patch_2">
    <path d="M 57.6 162.432 
L 414.72 162.432 
L 414.72 41.472 
L 57.6 41.472 
z
" style="fill:#ffffff;"/>
   </g>
   <g id="matplotlib.axis_1">
    <g id="xtick_1">
     <g id="line2d_1">
      <defs>
       <path d="M 0 0 
L 0 3.5 
" id="mc82d908edc" style="stroke:#000000;stroke-width:0.8;"/>
      </defs>
      <g>
       <use style="stroke:#000000;stroke-width:0.8;" x="57.6" xlink:href="#mc82d908edc" y="162.432"/>
      </g>
     </g>
     <g id="text_1">
      <!-- 0 -->
      <g transform="translate(54.41875 177.030437)scale(0.1 -0.1)">
       <defs>
        <path d="M 31.78125 66.40625 
Q 24.171875 66.40625 20.328125 58.90625 
Q 16.5 51.421875 16.5 36.375 
Q 16.5 21.390625 20.328125 13.890625 
Q 24.171875 6.390625 31.78125 6.390625 
Q 39.453125 6.390625 43.28125 13.890625 
Q 47.125 21.390625 47.125 36.375 
Q 47.125 51.421875 43.28125 58.90625 
Q 39.453125 66.40625 31.78125 66.40625 
z
M 31.78125 74.21875 
Q 44.046875 74.21875 50.515625 64.515625 
Q 56.984375 54.828125 56.984375 36.375 
Q 56.984375 17.96875 50.515625 8.265625 
Q 44.046875 -1.421875 31.78125 -1.421875 
Q 19.53125 -1.421875 13.0625 8.265625 
Q 6.59375 17.96875 6.59375 36.375 
Q 6.59375 54.828125 13.0625 64.515625 
Q 19.53125 74.21875 31.78125 74.21875 
z
" id="DejaVuSans-48"/>
       </defs>
       <use xlink:href="#DejaVuSans-48"/>
      </g>
     </g>
    </g>
    <g id="xtick_2">
     <g id="line2d_2">
      <g>
       <use style="stroke:#000000;stroke-width:0.8;" x="129.024" xlink:href="#mc82d908edc" y="162.432"/>
      </g>
     </g>
     <g id="text_2">
      <!-- 20 -->
      <g transform="translate(122.6615 177.030437)scale(0.1 -0.1)">
       <defs>
        <path d="M 19.1875 8.296875 
L 53.609375 8.296875 
L 53.609375 0 
L 7.328125 0 
L 7.328125 8.296875 
Q 12.9375 14.109375 22.625 23.890625 
Q 32.328125 33.6875 34.8125 36.53125 
Q 39.546875 41.84375 41.421875 45.53125 
Q 43.3125 49.21875 43.3125 52.78125 
Q 43.3125 58.59375 39.234375 62.25 
Q 35.15625 65.921875 28.609375 65.921875 
Q 23.96875 65.921875 18.8125 64.3125 
Q 13.671875 62.703125 7.8125 59.421875 
L 7.8125 69.390625 
Q 13.765625 71.78125 18.9375 73 
Q 24.125 74.21875 28.421875 74.21875 
Q 39.75 74.21875 46.484375 68.546875 
Q 53.21875 62.890625 53.21875 53.421875 
Q 53.21875 48.921875 51.53125 44.890625 
Q 49.859375 40.875 45.40625 35.40625 
Q 44.1875 33.984375 37.640625 27.21875 
Q 31.109375 20.453125 19.1875 8.296875 
z
" id="DejaVuSans-50"/>
       </defs>
       <use xlink:href="#DejaVuSans-50"/>
       <use x="63.623047" xlink:href="#DejaVuSans-48"/>
      </g>
     </g>
    </g>
    <g id="xtick_3">
     <g id="line2d_3">
      <g>
       <use style="stroke:#000000;stroke-width:0.8;" x="200.448" xlink:href="#mc82d908edc" y="162.432"/>
      </g>
     </g>
     <g id="text_3">
      <!-- 40 -->
      <g transform="translate(194.0855 177.030437)scale(0.1 -0.1)">
       <defs>
        <path d="M 37.796875 64.3125 
L 12.890625 25.390625 
L 37.796875 25.390625 
z
M 35.203125 72.90625 
L 47.609375 72.90625 
L 47.609375 25.390625 
L 58.015625 25.390625 
L 58.015625 17.1875 
L 47.609375 17.1875 
L 47.609375 0 
L 37.796875 0 
L 37.796875 17.1875 
L 4.890625 17.1875 
L 4.890625 26.703125 
z
" id="DejaVuSans-52"/>
       </defs>
       <use xlink:href="#DejaVuSans-52"/>
       <use x="63.623047" xlink:href="#DejaVuSans-48"/>
      </g>
     </g>
    </g>
    <g id="xtick_4">
     <g id="line2d_4">
      <g>
       <use style="stroke:#000000;stroke-width:0.8;" x="271.872" xlink:href="#mc82d908edc" y="162.432"/>
      </g>
     </g>
     <g id="text_4">
      <!-- 60 -->
      <g transform="translate(265.5095 177.030437)scale(0.1 -0.1)">
       <defs>
        <path d="M 33.015625 40.375 
Q 26.375 40.375 22.484375 35.828125 
Q 18.609375 31.296875 18.609375 23.390625 
Q 18.609375 15.53125 22.484375 10.953125 
Q 26.375 6.390625 33.015625 6.390625 
Q 39.65625 6.390625 43.53125 10.953125 
Q 47.40625 15.53125 47.40625 23.390625 
Q 47.40625 31.296875 43.53125 35.828125 
Q 39.65625 40.375 33.015625 40.375 
z
M 52.59375 71.296875 
L 52.59375 62.3125 
Q 48.875 64.0625 45.09375 64.984375 
Q 41.3125 65.921875 37.59375 65.921875 
Q 27.828125 65.921875 22.671875 59.328125 
Q 17.53125 52.734375 16.796875 39.40625 
Q 19.671875 43.65625 24.015625 45.921875 
Q 28.375 48.1875 33.59375 48.1875 
Q 44.578125 48.1875 50.953125 41.515625 
Q 57.328125 34.859375 57.328125 23.390625 
Q 57.328125 12.15625 50.6875 5.359375 
Q 44.046875 -1.421875 33.015625 -1.421875 
Q 20.359375 -1.421875 13.671875 8.265625 
Q 6.984375 17.96875 6.984375 36.375 
Q 6.984375 53.65625 15.1875 63.9375 
Q 23.390625 74.21875 37.203125 74.21875 
Q 40.921875 74.21875 44.703125 73.484375 
Q 48.484375 72.75 52.59375 71.296875 
z
" id="DejaVuSans-54"/>
       </defs>
       <use xlink:href="#DejaVuSans-54"/>
       <use x="63.623047" xlink:href="#DejaVuSans-48"/>
      </g>
     </g>
    </g>
    <g id="xtick_5">
     <g id="line2d_5">
      <g>
       <use style="stroke:#000000;stroke-width:0.8;" x="343.296" xlink:href="#mc82d908edc" y="162.432"/>
      </g>
     </g>
     <g id="text_5">
      <!-- 80 -->
      <g transform="translate(336.9335 177.030437)scale(0.1 -0.1)">
       <defs>
        <path d="M 31.78125 34.625 
Q 24.75 34.625 20.71875 30.859375 
Q 16.703125 27.09375 16.703125 20.515625 
Q 16.703125 13.921875 20.71875 10.15625 
Q 24.75 6.390625 31.78125 6.390625 
Q 38.8125 6.390625 42.859375 10.171875 
Q 46.921875 13.96875 46.921875 20.515625 
Q 46.921875 27.09375 42.890625 30.859375 
Q 38.875 34.625 31.78125 34.625 
z
M 21.921875 38.8125 
Q 15.578125 40.375 12.03125 44.71875 
Q 8.5 49.078125 8.5 55.328125 
Q 8.5 64.0625 14.71875 69.140625 
Q 20.953125 74.21875 31.78125 74.21875 
Q 42.671875 74.21875 48.875 69.140625 
Q 55.078125 64.0625 55.078125 55.328125 
Q 55.078125 49.078125 51.53125 44.71875 
Q 48 40.375 41.703125 38.8125 
Q 48.828125 37.15625 52.796875 32.3125 
Q 56.78125 27.484375 56.78125 20.515625 
Q 56.78125 9.90625 50.3125 4.234375 
Q 43.84375 -1.421875 31.78125 -1.421875 
Q 19.734375 -1.421875 13.25 4.234375 
Q 6.78125 9.90625 6.78125 20.515625 
Q 6.78125 27.484375 10.78125 32.3125 
Q 14.796875 37.15625 21.921875 38.8125 
z
M 18.3125 54.390625 
Q 18.3125 48.734375 21.84375 45.5625 
Q 25.390625 42.390625 31.78125 42.390625 
Q 38.140625 42.390625 41.71875 45.5625 
Q 45.3125 48.734375 45.3125 54.390625 
Q 45.3125 60.0625 41.71875 63.234375 
Q 38.140625 66.40625 31.78125 66.40625 
Q 25.390625 66.40625 21.84375 63.234375 
Q 18.3125 60.0625 18.3125 54.390625 
z
" id="DejaVuSans-56"/>
       </defs>
       <use xlink:href="#DejaVuSans-56"/>
       <use x="63.623047" xlink:href="#DejaVuSans-48"/>
      </g>
     </g>
    </g>
    <g id="xtick_6">
     <g id="line2d_6">
      <g>
       <use style="stroke:#000000;stroke-width:0.8;" x="414.72" xlink:href="#mc82d908edc" y="162.432"/>
      </g>
     </g>
     <g id="text_6">
      <!-- 100 -->
      <g transform="translate(405.17625 177.030437)scale(0.1 -0.1)">
       <defs>
        <path d="M 12.40625 8.296875 
L 28.515625 8.296875 
L 28.515625 63.921875 
L 10.984375 60.40625 
L 10.984375 69.390625 
L 28.421875 72.90625 
L 38.28125 72.90625 
L 38.28125 8.296875 
L 54.390625 8.296875 
L 54.390625 0 
L 12.40625 0 
z
" id="DejaVuSans-49"/>
       </defs>
       <use xlink:href="#DejaVuSans-49"/>
       <use x="63.623047" xlink:href="#DejaVuSans-48"/>
       <use x="127.246094" xlink:href="#DejaVuSans-48"/>
      </g>
     </g>
    </g>
   </g>
   <g id="matplotlib.axis_2">
    <g id="ytick_1">
     <g id="line2d_7">
      <defs>
       <path d="M 0 0 
L -3.5 0 
" id="m4a8dfc16a2" style="stroke:#000000;stroke-width:0.8;"/>
      </defs>
      <g>
       <use style="stroke:#000000;stroke-width:0.8;" x="57.6" xlink:href="#m4a8dfc16a2" y="146.775493"/>
      </g>
     </g>
     <g id="text_7">
      <!-- 0 -->
      <g transform="translate(44.2375 150.574712)scale(0.1 -0.1)">
       <use xlink:href="#DejaVuSans-48"/>
      </g>
     </g>
    </g>
    <g id="ytick_2">
     <g id="line2d_8">
      <g>
       <use style="stroke:#000000;stroke-width:0.8;" x="57.6" xlink:href="#m4a8dfc16a2" y="124.913341"/>
      </g>
     </g>
     <g id="text_8">
      <!-- 250 -->
      <g transform="translate(31.5125 128.712559)scale(0.1 -0.1)">
       <defs>
        <path d="M 10.796875 72.90625 
L 49.515625 72.90625 
L 49.515625 64.59375 
L 19.828125 64.59375 
L 19.828125 46.734375 
Q 21.96875 47.46875 24.109375 47.828125 
Q 26.265625 48.1875 28.421875 48.1875 
Q 40.625 48.1875 47.75 41.5 
Q 54.890625 34.8125 54.890625 23.390625 
Q 54.890625 11.625 47.5625 5.09375 
Q 40.234375 -1.421875 26.90625 -1.421875 
Q 22.3125 -1.421875 17.546875 -0.640625 
Q 12.796875 0.140625 7.71875 1.703125 
L 7.71875 11.625 
Q 12.109375 9.234375 16.796875 8.0625 
Q 21.484375 6.890625 26.703125 6.890625 
Q 35.15625 6.890625 40.078125 11.328125 
Q 45.015625 15.765625 45.015625 23.390625 
Q 45.015625 31 40.078125 35.4375 
Q 35.15625 39.890625 26.703125 39.890625 
Q 22.75 39.890625 18.8125 39.015625 
Q 14.890625 38.140625 10.796875 36.28125 
z
" id="DejaVuSans-53"/>
       </defs>
       <use xlink:href="#DejaVuSans-50"/>
       <use x="63.623047" xlink:href="#DejaVuSans-53"/>
       <use x="127.246094" xlink:href="#DejaVuSans-48"/>
      </g>
     </g>
    </g>
    <g id="ytick_3">
     <g id="line2d_9">
      <g>
       <use style="stroke:#000000;stroke-width:0.8;" x="57.6" xlink:href="#m4a8dfc16a2" y="103.051188"/>
      </g>
     </g>
     <g id="text_9">
      <!-- 500 -->
      <g transform="translate(31.5125 106.850407)scale(0.1 -0.1)">
       <use xlink:href="#DejaVuSans-53"/>
       <use x="63.623047" xlink:href="#DejaVuSans-48"/>
       <use x="127.246094" xlink:href="#DejaVuSans-48"/>
      </g>
     </g>
    </g>
    <g id="ytick_4">
     <g id="line2d_10">
      <g>
       <use style="stroke:#000000;stroke-width:0.8;" x="57.6" xlink:href="#m4a8dfc16a2" y="81.189036"/>
      </g>
     </g>
     <g id="text_10">
      <!-- 750 -->
      <g transform="translate(31.5125 84.988255)scale(0.1 -0.1)">
       <defs>
        <path d="M 8.203125 72.90625 
L 55.078125 72.90625 
L 55.078125 68.703125 
L 28.609375 0 
L 18.3125 0 
L 43.21875 64.59375 
L 8.203125 64.59375 
z
" id="DejaVuSans-55"/>
       </defs>
       <use xlink:href="#DejaVuSans-55"/>
       <use x="63.623047" xlink:href="#DejaVuSans-53"/>
       <use x="127.246094" xlink:href="#DejaVuSans-48"/>
      </g>
     </g>
    </g>
    <g id="ytick_5">
     <g id="line2d_11">
      <g>
       <use style="stroke:#000000;stroke-width:0.8;" x="57.6" xlink:href="#m4a8dfc16a2" y="59.326884"/>
      </g>
     </g>
     <g id="text_11">
      <!-- 1000 -->
      <g transform="translate(25.15 63.126102)scale(0.1 -0.1)">
       <use xlink:href="#DejaVuSans-49"/>
       <use x="63.623047" xlink:href="#DejaVuSans-48"/>
       <use x="127.246094" xlink:href="#DejaVuSans-48"/>
       <use x="190.869141" xlink:href="#DejaVuSans-48"/>
      </g>
     </g>
    </g>
   </g>
   <g id="line2d_12">
    <path clip-path="url(#pe162840a24)" d="M 57.6 156.933818 
L 61.1712 156.185379 
L 64.7424 155.360956 
L 68.3136 154.45581 
L 71.8848 153.465115 
L 75.456 152.383996 
L 79.0272 151.207564 
L 82.5984 149.930962 
L 86.1696 148.549425 
L 89.7408 147.058332 
L 93.312 145.453284 
L 96.8832 143.730176 
L 100.4544 141.885285 
L 104.0256 139.915364 
L 107.5968 137.81775 
L 111.168 135.590471 
L 114.7392 133.232368 
L 118.3104 130.743229 
L 121.8816 128.123917 
L 125.4528 125.376511 
L 129.024 122.504451 
L 132.5952 119.512676 
L 136.1664 116.407755 
L 139.7376 113.198006 
L 143.3088 109.893597 
L 146.88 106.506606 
L 150.4512 103.051047 
L 154.0224 99.542835 
L 157.5936 95.999689 
L 161.1648 92.440959 
L 164.736 88.887372 
L 168.3072 85.360701 
L 171.8784 81.883358 
L 175.4496 78.477935 
L 179.0208 75.166711 
L 182.592 71.971156 
L 186.1632 68.91146 
L 189.7344 66.006132 
L 193.3056 63.271677 
L 196.8768 60.722392 
L 200.448 58.370274 
L 204.0192 56.225042 
L 207.5904 54.294263 
L 211.1616 52.583568 
L 214.7328 51.096922 
L 218.304 49.836927 
L 221.8752 48.805135 
L 225.4464 48.002353 
L 229.0176 47.428905 
L 232.5888 47.084857 
L 236.16 46.970182 
L 239.7312 47.084857 
L 243.3024 47.428905 
L 246.8736 48.002353 
L 250.4448 48.805135 
L 254.016 49.836927 
L 257.5872 51.096922 
L 261.1584 52.583568 
L 264.7296 54.294263 
L 268.3008 56.225042 
L 271.872 58.370274 
L 275.4432 60.722392 
L 279.0144 63.271677 
L 282.5856 66.006132 
L 286.1568 68.91146 
L 289.728 71.971156 
L 293.2992 75.166711 
L 296.8704 78.477935 
L 300.4416 81.883358 
L 304.0128 85.360701 
L 307.584 88.887372 
L 311.1552 92.440959 
L 314.7264 95.999689 
L 318.2976 99.542835 
L 321.8688 103.051047 
L 325.44 106.506606 
L 329.0112 109.893597 
L 332.5824 113.198006 
L 336.1536 116.407755 
L 339.7248 119.512676 
L 343.296 122.504451 
L 346.8672 125.376511 
L 350.4384 128.123917 
L 354.0096 130.743229 
L 357.5808 133.232368 
L 361.152 135.590471 
L 364.7232 137.81775 
L 368.2944 139.915364 
L 371.8656 141.885285 
L 375.4368 143.730176 
L 379.008 145.453284 
L 382.5792 147.058332 
L 386.1504 148.549425 
L 389.7216 149.930962 
L 393.2928 151.207564 
L 396.864 152.383996 
L 400.4352 153.465115 
L 404.0064 154.45581 
L 407.5776 155.360956 
L 411.1488 156.185379 
L 414.72 156.933818 
" style="fill:none;stroke:#1f77b4;stroke-linecap:square;stroke-width:1.5;"/>
    <defs>
     <path d="M 0 1.5 
C 0.397805 1.5 0.77937 1.341951 1.06066 1.06066 
C 1.341951 0.77937 1.5 0.397805 1.5 0 
C 1.5 -0.397805 1.341951 -0.77937 1.06066 -1.06066 
C 0.77937 -1.341951 0.397805 -1.5 0 -1.5 
C -0.397805 -1.5 -0.77937 -1.341951 -1.06066 -1.06066 
C -1.341951 -0.77937 -1.5 -0.397805 -1.5 0 
C -1.5 0.397805 -1.341951 0.77937 -1.06066 1.06066 
C -0.77937 1.341951 -0.397805 1.5 0 1.5 
z
" id="m108226853b" style="stroke:#1f77b4;"/>
    </defs>
    <g clip-path="url(#pe162840a24)">
     <use style="fill:#1f77b4;stroke:#1f77b4;" x="57.6" xlink:href="#m108226853b" y="156.933818"/>
     <use style="fill:#1f77b4;stroke:#1f77b4;" x="61.1712" xlink:href="#m108226853b" y="156.185379"/>
     <use style="fill:#1f77b4;stroke:#1f77b4;" x="64.7424" xlink:href="#m108226853b" y="155.360956"/>
     <use style="fill:#1f77b4;stroke:#1f77b4;" x="68.3136" xlink:href="#m108226853b" y="154.45581"/>
     <use style="fill:#1f77b4;stroke:#1f77b4;" x="71.8848" xlink:href="#m108226853b" y="153.465115"/>
     <use style="fill:#1f77b4;stroke:#1f77b4;" x="75.456" xlink:href="#m108226853b" y="152.383996"/>
     <use style="fill:#1f77b4;stroke:#1f77b4;" x="79.0272" xlink:href="#m108226853b" y="151.207564"/>
     <use style="fill:#1f77b4;stroke:#1f77b4;" x="82.5984" xlink:href="#m108226853b" y="149.930962"/>
     <use style="fill:#1f77b4;stroke:#1f77b4;" x="86.1696" xlink:href="#m108226853b" y="148.549425"/>
     <use style="fill:#1f77b4;stroke:#1f77b4;" x="89.7408" xlink:href="#m108226853b" y="147.058332"/>
     <use style="fill:#1f77b4;stroke:#1f77b4;" x="93.312" xlink:href="#m108226853b" y="145.453284"/>
     <use style="fill:#1f77b4;stroke:#1f77b4;" x="96.8832" xlink:href="#m108226853b" y="143.730176"/>
     <use style="fill:#1f77b4;stroke:#1f77b4;" x="100.4544" xlink:href="#m108226853b" y="141.885285"/>
     <use style="fill:#1f77b4;stroke:#1f77b4;" x="104.0256" xlink:href="#m108226853b" y="139.915364"/>
     <use style="fill:#1f77b4;stroke:#1f77b4;" x="107.5968" xlink:href="#m108226853b" y="137.81775"/>
     <use style="fill:#1f77b4;stroke:#1f77b4;" x="111.168" xlink:href="#m108226853b" y="135.590471"/>
     <use style="fill:#1f77b4;stroke:#1f77b4;" x="114.7392" xlink:href="#m108226853b" y="133.232368"/>
     <use style="fill:#1f77b4;stroke:#1f77b4;" x="118.3104" xlink:href="#m108226853b" y="130.743229"/>
     <use style="fill:#1f77b4;stroke:#1f77b4;" x="121.8816" xlink:href="#m108226853b" y="128.123917"/>
     <use style="fill:#1f77b4;stroke:#1f77b4;" x="125.4528" xlink:href="#m108226853b" y="125.376511"/>
     <use style="fill:#1f77b4;stroke:#1f77b4;" x="129.024" xlink:href="#m108226853b" y="122.504451"/>
     <use style="fill:#1f77b4;stroke:#1f77b4;" x="132.5952" xlink:href="#m108226853b" y="119.512676"/>
     <use style="fill:#1f77b4;stroke:#1f77b4;" x="136.1664" xlink:href="#m108226853b" y="116.407755"/>
     <use style="fill:#1f77b4;stroke:#1f77b4;" x="139.7376" xlink:href="#m108226853b" y="113.198006"/>
     <use style="fill:#1f77b4;stroke:#1f77b4;" x="143.3088" xlink:href="#m108226853b" y="109.893597"/>
     <use style="fill:#1f77b4;stroke:#1f77b4;" x="146.88" xlink:href="#m108226853b" y="106.506606"/>
     <use style="fill:#1f77b4;stroke:#1f77b4;" x="150.4512" xlink:href="#m108226853b" y="103.051047"/>
     <use style="fill:#1f77b4;stroke:#1f77b4;" x="154.0224" xlink:href="#m108226853b" y="99.542835"/>
     <use style="fill:#1f77b4;stroke:#1f77b4;" x="157.5936" xlink:href="#m108226853b" y="95.999689"/>
     <use style="fill:#1f77b4;stroke:#1f77b4;" x="161.1648" xlink:href="#m108226853b" y="92.440959"/>
     <use style="fill:#1f77b4;stroke:#1f77b4;" x="164.736" xlink:href="#m108226853b" y="88.887372"/>
     <use style="fill:#1f77b4;stroke:#1f77b4;" x="168.3072" xlink:href="#m108226853b" y="85.360701"/>
     <use style="fill:#1f77b4;stroke:#1f77b4;" x="171.8784" xlink:href="#m108226853b" y="81.883358"/>
     <use style="fill:#1f77b4;stroke:#1f77b4;" x="175.4496" xlink:href="#m108226853b" y="78.477935"/>
     <use style="fill:#1f77b4;stroke:#1f77b4;" x="179.0208" xlink:href="#m108226853b" y="75.166711"/>
     <use style="fill:#1f77b4;stroke:#1f77b4;" x="182.592" xlink:href="#m108226853b" y="71.971156"/>
     <use style="fill:#1f77b4;stroke:#1f77b4;" x="186.1632" xlink:href="#m108226853b" y="68.91146"/>
     <use style="fill:#1f77b4;stroke:#1f77b4;" x="189.7344" xlink:href="#m108226853b" y="66.006132"/>
     <use style="fill:#1f77b4;stroke:#1f77b4;" x="193.3056" xlink:href="#m108226853b" y="63.271677"/>
     <use style="fill:#1f77b4;stroke:#1f77b4;" x="196.8768" xlink:href="#m108226853b" y="60.722392"/>
     <use style="fill:#1f77b4;stroke:#1f77b4;" x="200.448" xlink:href="#m108226853b" y="58.370274"/>
     <use style="fill:#1f77b4;stroke:#1f77b4;" x="204.0192" xlink:href="#m108226853b" y="56.225042"/>
     <use style="fill:#1f77b4;stroke:#1f77b4;" x="207.5904" xlink:href="#m108226853b" y="54.294263"/>
     <use style="fill:#1f77b4;stroke:#1f77b4;" x="211.1616" xlink:href="#m108226853b" y="52.583568"/>
     <use style="fill:#1f77b4;stroke:#1f77b4;" x="214.7328" xlink:href="#m108226853b" y="51.096922"/>
     <use style="fill:#1f77b4;stroke:#1f77b4;" x="218.304" xlink:href="#m108226853b" y="49.836927"/>
     <use style="fill:#1f77b4;stroke:#1f77b4;" x="221.8752" xlink:href="#m108226853b" y="48.805135"/>
     <use style="fill:#1f77b4;stroke:#1f77b4;" x="225.4464" xlink:href="#m108226853b" y="48.002353"/>
     <use style="fill:#1f77b4;stroke:#1f77b4;" x="229.0176" xlink:href="#m108226853b" y="47.428905"/>
     <use style="fill:#1f77b4;stroke:#1f77b4;" x="232.5888" xlink:href="#m108226853b" y="47.084857"/>
     <use style="fill:#1f77b4;stroke:#1f77b4;" x="236.16" xlink:href="#m108226853b" y="46.970182"/>
     <use style="fill:#1f77b4;stroke:#1f77b4;" x="239.7312" xlink:href="#m108226853b" y="47.084857"/>
     <use style="fill:#1f77b4;stroke:#1f77b4;" x="243.3024" xlink:href="#m108226853b" y="47.428905"/>
     <use style="fill:#1f77b4;stroke:#1f77b4;" x="246.8736" xlink:href="#m108226853b" y="48.002353"/>
     <use style="fill:#1f77b4;stroke:#1f77b4;" x="250.4448" xlink:href="#m108226853b" y="48.805135"/>
     <use style="fill:#1f77b4;stroke:#1f77b4;" x="254.016" xlink:href="#m108226853b" y="49.836927"/>
     <use style="fill:#1f77b4;stroke:#1f77b4;" x="257.5872" xlink:href="#m108226853b" y="51.096922"/>
     <use style="fill:#1f77b4;stroke:#1f77b4;" x="261.1584" xlink:href="#m108226853b" y="52.583568"/>
     <use style="fill:#1f77b4;stroke:#1f77b4;" x="264.7296" xlink:href="#m108226853b" y="54.294263"/>
     <use style="fill:#1f77b4;stroke:#1f77b4;" x="268.3008" xlink:href="#m108226853b" y="56.225042"/>
     <use style="fill:#1f77b4;stroke:#1f77b4;" x="271.872" xlink:href="#m108226853b" y="58.370274"/>
     <use style="fill:#1f77b4;stroke:#1f77b4;" x="275.4432" xlink:href="#m108226853b" y="60.722392"/>
     <use style="fill:#1f77b4;stroke:#1f77b4;" x="279.0144" xlink:href="#m108226853b" y="63.271677"/>
     <use style="fill:#1f77b4;stroke:#1f77b4;" x="282.5856" xlink:href="#m108226853b" y="66.006132"/>
     <use style="fill:#1f77b4;stroke:#1f77b4;" x="286.1568" xlink:href="#m108226853b" y="68.91146"/>
     <use style="fill:#1f77b4;stroke:#1f77b4;" x="289.728" xlink:href="#m108226853b" y="71.971156"/>
     <use style="fill:#1f77b4;stroke:#1f77b4;" x="293.2992" xlink:href="#m108226853b" y="75.166711"/>
     <use style="fill:#1f77b4;stroke:#1f77b4;" x="296.8704" xlink:href="#m108226853b" y="78.477935"/>
     <use style="fill:#1f77b4;stroke:#1f77b4;" x="300.4416" xlink:href="#m108226853b" y="81.883358"/>
     <use style="fill:#1f77b4;stroke:#1f77b4;" x="304.0128" xlink:href="#m108226853b" y="85.360701"/>
     <use style="fill:#1f77b4;stroke:#1f77b4;" x="307.584" xlink:href="#m108226853b" y="88.887372"/>
     <use style="fill:#1f77b4;stroke:#1f77b4;" x="311.1552" xlink:href="#m108226853b" y="92.440959"/>
     <use style="fill:#1f77b4;stroke:#1f77b4;" x="314.7264" xlink:href="#m108226853b" y="95.999689"/>
     <use style="fill:#1f77b4;stroke:#1f77b4;" x="318.2976" xlink:href="#m108226853b" y="99.542835"/>
     <use style="fill:#1f77b4;stroke:#1f77b4;" x="321.8688" xlink:href="#m108226853b" y="103.051047"/>
     <use style="fill:#1f77b4;stroke:#1f77b4;" x="325.44" xlink:href="#m108226853b" y="106.506606"/>
     <use style="fill:#1f77b4;stroke:#1f77b4;" x="329.0112" xlink:href="#m108226853b" y="109.893597"/>
     <use style="fill:#1f77b4;stroke:#1f77b4;" x="332.5824" xlink:href="#m108226853b" y="113.198006"/>
     <use style="fill:#1f77b4;stroke:#1f77b4;" x="336.1536" xlink:href="#m108226853b" y="116.407755"/>
     <use style="fill:#1f77b4;stroke:#1f77b4;" x="339.7248" xlink:href="#m108226853b" y="119.512676"/>
     <use style="fill:#1f77b4;stroke:#1f77b4;" x="343.296" xlink:href="#m108226853b" y="122.504451"/>
     <use style="fill:#1f77b4;stroke:#1f77b4;" x="346.8672" xlink:href="#m108226853b" y="125.376511"/>
     <use style="fill:#1f77b4;stroke:#1f77b4;" x="350.4384" xlink:href="#m108226853b" y="128.123917"/>
     <use style="fill:#1f77b4;stroke:#1f77b4;" x="354.0096" xlink:href="#m108226853b" y="130.743229"/>
     <use style="fill:#1f77b4;stroke:#1f77b4;" x="357.5808" xlink:href="#m108226853b" y="133.232368"/>
     <use style="fill:#1f77b4;stroke:#1f77b4;" x="361.152" xlink:href="#m108226853b" y="135.590471"/>
     <use style="fill:#1f77b4;stroke:#1f77b4;" x="364.7232" xlink:href="#m108226853b" y="137.81775"/>
     <use style="fill:#1f77b4;stroke:#1f77b4;" x="368.2944" xlink:href="#m108226853b" y="139.915364"/>
     <use style="fill:#1f77b4;stroke:#1f77b4;" x="371.8656" xlink:href="#m108226853b" y="141.885285"/>
     <use style="fill:#1f77b4;stroke:#1f77b4;" x="375.4368" xlink:href="#m108226853b" y="143.730176"/>
     <use style="fill:#1f77b4;stroke:#1f77b4;" x="379.008" xlink:href="#m108226853b" y="145.453284"/>
     <use style="fill:#1f77b4;stroke:#1f77b4;" x="382.5792" xlink:href="#m108226853b" y="147.058332"/>
     <use style="fill:#1f77b4;stroke:#1f77b4;" x="386.1504" xlink:href="#m108226853b" y="148.549425"/>
     <use style="fill:#1f77b4;stroke:#1f77b4;" x="389.7216" xlink:href="#m108226853b" y="149.930962"/>
     <use style="fill:#1f77b4;stroke:#1f77b4;" x="393.2928" xlink:href="#m108226853b" y="151.207564"/>
     <use style="fill:#1f77b4;stroke:#1f77b4;" x="396.864" xlink:href="#m108226853b" y="152.383996"/>
     <use style="fill:#1f77b4;stroke:#1f77b4;" x="400.4352" xlink:href="#m108226853b" y="153.465115"/>
     <use style="fill:#1f77b4;stroke:#1f77b4;" x="404.0064" xlink:href="#m108226853b" y="154.45581"/>
     <use style="fill:#1f77b4;stroke:#1f77b4;" x="407.5776" xlink:href="#m108226853b" y="155.360956"/>
     <use style="fill:#1f77b4;stroke:#1f77b4;" x="411.1488" xlink:href="#m108226853b" y="156.185379"/>
     <use style="fill:#1f77b4;stroke:#1f77b4;" x="414.72" xlink:href="#m108226853b" y="156.933818"/>
    </g>
   </g>
   <g id="patch_3">
    <path d="M 57.6 162.432 
L 57.6 41.472 
" style="fill:none;stroke:#000000;stroke-linecap:square;stroke-linejoin:miter;stroke-width:0.8;"/>
   </g>
   <g id="patch_4">
    <path d="M 414.72 162.432 
L 414.72 41.472 
" style="fill:none;stroke:#000000;stroke-linecap:square;stroke-linejoin:miter;stroke-width:0.8;"/>
   </g>
   <g id="patch_5">
    <path d="M 57.6 162.432 
L 414.72 162.432 
" style="fill:none;stroke:#000000;stroke-linecap:square;stroke-linejoin:miter;stroke-width:0.8;"/>
   </g>
   <g id="patch_6">
    <path d="M 57.6 41.472 
L 414.72 41.472 
" style="fill:none;stroke:#000000;stroke-linecap:square;stroke-linejoin:miter;stroke-width:0.8;"/>
   </g>
  </g>
  <g id="axes_2">
   <g id="patch_7">
    <path d="M 57.6 307.584 
L 414.72 307.584 
L 414.72 186.624 
L 57.6 186.624 
z
" style="fill:#ffffff;"/>
   </g>
   <g id="matplotlib.axis_3">
    <g id="xtick_7">
     <g id="line2d_13">
      <g>
       <use style="stroke:#000000;stroke-width:0.8;" x="57.6" xlink:href="#mc82d908edc" y="307.584"/>
      </g>
     </g>
     <g id="text_12">
      <!-- 0 -->
      <g transform="translate(54.41875 322.182437)scale(0.1 -0.1)">
       <use xlink:href="#DejaVuSans-48"/>
      </g>
     </g>
    </g>
    <g id="xtick_8">
     <g id="line2d_14">
      <g>
       <use style="stroke:#000000;stroke-width:0.8;" x="129.024" xlink:href="#mc82d908edc" y="307.584"/>
      </g>
     </g>
     <g id="text_13">
      <!-- 20 -->
      <g transform="translate(122.6615 322.182437)scale(0.1 -0.1)">
       <use xlink:href="#DejaVuSans-50"/>
       <use x="63.623047" xlink:href="#DejaVuSans-48"/>
      </g>
     </g>
    </g>
    <g id="xtick_9">
     <g id="line2d_15">
      <g>
       <use style="stroke:#000000;stroke-width:0.8;" x="200.448" xlink:href="#mc82d908edc" y="307.584"/>
      </g>
     </g>
     <g id="text_14">
      <!-- 40 -->
      <g transform="translate(194.0855 322.182437)scale(0.1 -0.1)">
       <use xlink:href="#DejaVuSans-52"/>
       <use x="63.623047" xlink:href="#DejaVuSans-48"/>
      </g>
     </g>
    </g>
    <g id="xtick_10">
     <g id="line2d_16">
      <g>
       <use style="stroke:#000000;stroke-width:0.8;" x="271.872" xlink:href="#mc82d908edc" y="307.584"/>
      </g>
     </g>
     <g id="text_15">
      <!-- 60 -->
      <g transform="translate(265.5095 322.182437)scale(0.1 -0.1)">
       <use xlink:href="#DejaVuSans-54"/>
       <use x="63.623047" xlink:href="#DejaVuSans-48"/>
      </g>
     </g>
    </g>
    <g id="xtick_11">
     <g id="line2d_17">
      <g>
       <use style="stroke:#000000;stroke-width:0.8;" x="343.296" xlink:href="#mc82d908edc" y="307.584"/>
      </g>
     </g>
     <g id="text_16">
      <!-- 80 -->
      <g transform="translate(336.9335 322.182437)scale(0.1 -0.1)">
       <use xlink:href="#DejaVuSans-56"/>
       <use x="63.623047" xlink:href="#DejaVuSans-48"/>
      </g>
     </g>
    </g>
    <g id="xtick_12">
     <g id="line2d_18">
      <g>
       <use style="stroke:#000000;stroke-width:0.8;" x="414.72" xlink:href="#mc82d908edc" y="307.584"/>
      </g>
     </g>
     <g id="text_17">
      <!-- 100 -->
      <g transform="translate(405.17625 322.182437)scale(0.1 -0.1)">
       <use xlink:href="#DejaVuSans-49"/>
       <use x="63.623047" xlink:href="#DejaVuSans-48"/>
       <use x="127.246094" xlink:href="#DejaVuSans-48"/>
      </g>
     </g>
    </g>
   </g>
   <g id="matplotlib.axis_4">
    <g id="ytick_6">
     <g id="line2d_19">
      <g>
       <use style="stroke:#000000;stroke-width:0.8;" x="57.6" xlink:href="#m4a8dfc16a2" y="302.085818"/>
      </g>
     </g>
     <g id="text_18">
      <!-- 20 -->
      <g transform="translate(37.875 305.885037)scale(0.1 -0.1)">
       <use xlink:href="#DejaVuSans-50"/>
       <use x="63.623047" xlink:href="#DejaVuSans-48"/>
      </g>
     </g>
    </g>
    <g id="ytick_7">
     <g id="line2d_20">
      <g>
       <use style="stroke:#000000;stroke-width:0.8;" x="57.6" xlink:href="#m4a8dfc16a2" y="265.431273"/>
      </g>
     </g>
     <g id="text_19">
      <!-- 30 -->
      <g transform="translate(37.875 269.230491)scale(0.1 -0.1)">
       <defs>
        <path d="M 40.578125 39.3125 
Q 47.65625 37.796875 51.625 33 
Q 55.609375 28.21875 55.609375 21.1875 
Q 55.609375 10.40625 48.1875 4.484375 
Q 40.765625 -1.421875 27.09375 -1.421875 
Q 22.515625 -1.421875 17.65625 -0.515625 
Q 12.796875 0.390625 7.625 2.203125 
L 7.625 11.71875 
Q 11.71875 9.328125 16.59375 8.109375 
Q 21.484375 6.890625 26.8125 6.890625 
Q 36.078125 6.890625 40.9375 10.546875 
Q 45.796875 14.203125 45.796875 21.1875 
Q 45.796875 27.640625 41.28125 31.265625 
Q 36.765625 34.90625 28.71875 34.90625 
L 20.21875 34.90625 
L 20.21875 43.015625 
L 29.109375 43.015625 
Q 36.375 43.015625 40.234375 45.921875 
Q 44.09375 48.828125 44.09375 54.296875 
Q 44.09375 59.90625 40.109375 62.90625 
Q 36.140625 65.921875 28.71875 65.921875 
Q 24.65625 65.921875 20.015625 65.03125 
Q 15.375 64.15625 9.8125 62.3125 
L 9.8125 71.09375 
Q 15.4375 72.65625 20.34375 73.4375 
Q 25.25 74.21875 29.59375 74.21875 
Q 40.828125 74.21875 47.359375 69.109375 
Q 53.90625 64.015625 53.90625 55.328125 
Q 53.90625 49.265625 50.4375 45.09375 
Q 46.96875 40.921875 40.578125 39.3125 
z
" id="DejaVuSans-51"/>
       </defs>
       <use xlink:href="#DejaVuSans-51"/>
       <use x="63.623047" xlink:href="#DejaVuSans-48"/>
      </g>
     </g>
    </g>
    <g id="ytick_8">
     <g id="line2d_21">
      <g>
       <use style="stroke:#000000;stroke-width:0.8;" x="57.6" xlink:href="#m4a8dfc16a2" y="228.776727"/>
      </g>
     </g>
     <g id="text_20">
      <!-- 40 -->
      <g transform="translate(37.875 232.575946)scale(0.1 -0.1)">
       <use xlink:href="#DejaVuSans-52"/>
       <use x="63.623047" xlink:href="#DejaVuSans-48"/>
      </g>
     </g>
    </g>
    <g id="ytick_9">
     <g id="line2d_22">
      <g>
       <use style="stroke:#000000;stroke-width:0.8;" x="57.6" xlink:href="#m4a8dfc16a2" y="192.122182"/>
      </g>
     </g>
     <g id="text_21">
      <!-- 50 -->
      <g transform="translate(37.875 195.921401)scale(0.1 -0.1)">
       <use xlink:href="#DejaVuSans-53"/>
       <use x="63.623047" xlink:href="#DejaVuSans-48"/>
      </g>
     </g>
    </g>
   </g>
   <g id="line2d_23">
    <path clip-path="url(#p1f303f3ae2)" d="M 182.592 192.122182 
L 289.728 192.122182 
L 343.296 247.104 
L 289.728 302.085818 
L 182.592 302.085818 
L 129.024 247.104 
L 182.592 192.122182 
" style="fill:none;stroke:#1f77b4;stroke-linecap:square;stroke-width:1.5;"/>
    <defs>
     <path d="M 0 3 
C 0.795609 3 1.55874 2.683901 2.12132 2.12132 
C 2.683901 1.55874 3 0.795609 3 0 
C 3 -0.795609 2.683901 -1.55874 2.12132 -2.12132 
C 1.55874 -2.683901 0.795609 -3 0 -3 
C -0.795609 -3 -1.55874 -2.683901 -2.12132 -2.12132 
C -2.683901 -1.55874 -3 -0.795609 -3 0 
C -3 0.795609 -2.683901 1.55874 -2.12132 2.12132 
C -1.55874 2.683901 -0.795609 3 0 3 
z
" id="me95d88452d" style="stroke:#1f77b4;"/>
    </defs>
    <g clip-path="url(#p1f303f3ae2)">
     <use style="fill:#1f77b4;stroke:#1f77b4;" x="182.592" xlink:href="#me95d88452d" y="192.122182"/>
     <use style="fill:#1f77b4;stroke:#1f77b4;" x="289.728" xlink:href="#me95d88452d" y="192.122182"/>
     <use style="fill:#1f77b4;stroke:#1f77b4;" x="343.296" xlink:href="#me95d88452d" y="247.104"/>
     <use style="fill:#1f77b4;stroke:#1f77b4;" x="289.728" xlink:href="#me95d88452d" y="302.085818"/>
     <use style="fill:#1f77b4;stroke:#1f77b4;" x="182.592" xlink:href="#me95d88452d" y="302.085818"/>
     <use style="fill:#1f77b4;stroke:#1f77b4;" x="129.024" xlink:href="#me95d88452d" y="247.104"/>
     <use style="fill:#1f77b4;stroke:#1f77b4;" x="182.592" xlink:href="#me95d88452d" y="192.122182"/>
    </g>
   </g>
   <g id="patch_8">
    <path d="M 57.6 307.584 
L 57.6 186.624 
" style="fill:none;stroke:#000000;stroke-linecap:square;stroke-linejoin:miter;stroke-width:0.8;"/>
   </g>
   <g id="patch_9">
    <path d="M 414.72 307.584 
L 414.72 186.624 
" style="fill:none;stroke:#000000;stroke-linecap:square;stroke-linejoin:miter;stroke-width:0.8;"/>
   </g>
   <g id="patch_10">
    <path d="M 57.6 307.584 
L 414.72 307.584 
" style="fill:none;stroke:#000000;stroke-linecap:square;stroke-linejoin:miter;stroke-width:0.8;"/>
   </g>
   <g id="patch_11">
    <path d="M 57.6 186.624 
L 414.72 186.624 
" style="fill:none;stroke:#000000;stroke-linecap:square;stroke-linejoin:miter;stroke-width:0.8;"/>
   </g>
  </g>
 </g>
 <defs>
  <clipPath id="pe162840a24">
   <rect height="120.96" width="357.12" x="57.6" y="41.472"/>
  </clipPath>
  <clipPath id="p1f303f3ae2">
   <rect height="120.96" width="357.12" x="57.6" y="186.624"/>
  </clipPath>
 </defs>
</svg>
