<?xml version="1.0" encoding="utf-8" standalone="no"?>
<!DOCTYPE svg PUBLIC "-//W3C//DTD SVG 1.1//EN"
  "http://www.w3.org/Graphics/SVG/1.1/DTD/svg11.dtd">
<!-- Created with matplotlib (https://matplotlib.org/) -->
<svg height="516.24pt" version="1.1" viewBox="0 0 524.88 516.24" width="524.88pt" xmlns="http://www.w3.org/2000/svg" xmlns:xlink="http://www.w3.org/1999/xlink">
 <metadata>
  <rdf:RDF xmlns:cc="http://creativecommons.org/ns#" xmlns:dc="http://purl.org/dc/elements/1.1/" xmlns:rdf="http://www.w3.org/1999/02/22-rdf-syntax-ns#">
   <cc:Work>
    <dc:type rdf:resource="http://purl.org/dc/dcmitype/StillImage"/>
    <dc:date>2020-12-16T15:55:46.678071</dc:date>
    <dc:format>image/svg+xml</dc:format>
    <dc:creator>
     <cc:Agent>
      <dc:title>Matplotlib v3.3.2, https://matplotlib.org/</dc:title>
     </cc:Agent>
    </dc:creator>
   </cc:Work>
  </rdf:RDF>
 </metadata>
 <defs>
  <style type="text/css">*{stroke-linecap:butt;stroke-linejoin:round;}</style>
 </defs>
 <g id="figure_1">
  <g id="patch_1">
   <path d="M 0 516.24 
L 524.88 516.24 
L 524.88 0 
L 0 0 
z
" style="fill:#ffffff;"/>
  </g>
  <g id="axes_1">
   <g id="patch_2">
    <path d="M 65.61 242.6328 
L 472.392 242.6328 
L 472.392 61.9488 
L 65.61 61.9488 
z
" style="fill:#ffffff;"/>
   </g>
   <g id="matplotlib.axis_1">
    <g id="xtick_1">
     <g id="line2d_1">
      <defs>
       <path d="M 0 0 
L 0 3.5 
" id="m1a26320d0c" style="stroke:#000000;stroke-width:0.8;"/>
      </defs>
      <g>
       <use style="stroke:#000000;stroke-width:0.8;" x="84.100091" xlink:href="#m1a26320d0c" y="242.6328"/>
      </g>
     </g>
     <g id="text_1">
      <!-- 0 -->
      <g transform="translate(80.918841 257.231237)scale(0.1 -0.1)">
       <defs>
        <path d="M 31.78125 66.40625 
Q 24.171875 66.40625 20.328125 58.90625 
Q 16.5 51.421875 16.5 36.375 
Q 16.5 21.390625 20.328125 13.890625 
Q 24.171875 6.390625 31.78125 6.390625 
Q 39.453125 6.390625 43.28125 13.890625 
Q 47.125 21.390625 47.125 36.375 
Q 47.125 51.421875 43.28125 58.90625 
Q 39.453125 66.40625 31.78125 66.40625 
z
M 31.78125 74.21875 
Q 44.046875 74.21875 50.515625 64.515625 
Q 56.984375 54.828125 56.984375 36.375 
Q 56.984375 17.96875 50.515625 8.265625 
Q 44.046875 -1.421875 31.78125 -1.421875 
Q 19.53125 -1.421875 13.0625 8.265625 
Q 6.59375 17.96875 6.59375 36.375 
Q 6.59375 54.828125 13.0625 64.515625 
Q 19.53125 74.21875 31.78125 74.21875 
z
" id="DejaVuSans-48"/>
       </defs>
       <use xlink:href="#DejaVuSans-48"/>
      </g>
     </g>
    </g>
    <g id="xtick_2">
     <g id="line2d_2">
      <g>
       <use style="stroke:#000000;stroke-width:0.8;" x="158.060455" xlink:href="#m1a26320d0c" y="242.6328"/>
      </g>
     </g>
     <g id="text_2">
      <!-- 20 -->
      <g transform="translate(151.697955 257.231237)scale(0.1 -0.1)">
       <defs>
        <path d="M 19.1875 8.296875 
L 53.609375 8.296875 
L 53.609375 0 
L 7.328125 0 
L 7.328125 8.296875 
Q 12.9375 14.109375 22.625 23.890625 
Q 32.328125 33.6875 34.8125 36.53125 
Q 39.546875 41.84375 41.421875 45.53125 
Q 43.3125 49.21875 43.3125 52.78125 
Q 43.3125 58.59375 39.234375 62.25 
Q 35.15625 65.921875 28.609375 65.921875 
Q 23.96875 65.921875 18.8125 64.3125 
Q 13.671875 62.703125 7.8125 59.421875 
L 7.8125 69.390625 
Q 13.765625 71.78125 18.9375 73 
Q 24.125 74.21875 28.421875 74.21875 
Q 39.75 74.21875 46.484375 68.546875 
Q 53.21875 62.890625 53.21875 53.421875 
Q 53.21875 48.921875 51.53125 44.890625 
Q 49.859375 40.875 45.40625 35.40625 
Q 44.1875 33.984375 37.640625 27.21875 
Q 31.109375 20.453125 19.1875 8.296875 
z
" id="DejaVuSans-50"/>
       </defs>
       <use xlink:href="#DejaVuSans-50"/>
       <use x="63.623047" xlink:href="#DejaVuSans-48"/>
      </g>
     </g>
    </g>
    <g id="xtick_3">
     <g id="line2d_3">
      <g>
       <use style="stroke:#000000;stroke-width:0.8;" x="232.020818" xlink:href="#m1a26320d0c" y="242.6328"/>
      </g>
     </g>
     <g id="text_3">
      <!-- 40 -->
      <g transform="translate(225.658318 257.231237)scale(0.1 -0.1)">
       <defs>
        <path d="M 37.796875 64.3125 
L 12.890625 25.390625 
L 37.796875 25.390625 
z
M 35.203125 72.90625 
L 47.609375 72.90625 
L 47.609375 25.390625 
L 58.015625 25.390625 
L 58.015625 17.1875 
L 47.609375 17.1875 
L 47.609375 0 
L 37.796875 0 
L 37.796875 17.1875 
L 4.890625 17.1875 
L 4.890625 26.703125 
z
" id="DejaVuSans-52"/>
       </defs>
       <use xlink:href="#DejaVuSans-52"/>
       <use x="63.623047" xlink:href="#DejaVuSans-48"/>
      </g>
     </g>
    </g>
    <g id="xtick_4">
     <g id="line2d_4">
      <g>
       <use style="stroke:#000000;stroke-width:0.8;" x="305.981182" xlink:href="#m1a26320d0c" y="242.6328"/>
      </g>
     </g>
     <g id="text_4">
      <!-- 60 -->
      <g transform="translate(299.618682 257.231237)scale(0.1 -0.1)">
       <defs>
        <path d="M 33.015625 40.375 
Q 26.375 40.375 22.484375 35.828125 
Q 18.609375 31.296875 18.609375 23.390625 
Q 18.609375 15.53125 22.484375 10.953125 
Q 26.375 6.390625 33.015625 6.390625 
Q 39.65625 6.390625 43.53125 10.953125 
Q 47.40625 15.53125 47.40625 23.390625 
Q 47.40625 31.296875 43.53125 35.828125 
Q 39.65625 40.375 33.015625 40.375 
z
M 52.59375 71.296875 
L 52.59375 62.3125 
Q 48.875 64.0625 45.09375 64.984375 
Q 41.3125 65.921875 37.59375 65.921875 
Q 27.828125 65.921875 22.671875 59.328125 
Q 17.53125 52.734375 16.796875 39.40625 
Q 19.671875 43.65625 24.015625 45.921875 
Q 28.375 48.1875 33.59375 48.1875 
Q 44.578125 48.1875 50.953125 41.515625 
Q 57.328125 34.859375 57.328125 23.390625 
Q 57.328125 12.15625 50.6875 5.359375 
Q 44.046875 -1.421875 33.015625 -1.421875 
Q 20.359375 -1.421875 13.671875 8.265625 
Q 6.984375 17.96875 6.984375 36.375 
Q 6.984375 53.65625 15.1875 63.9375 
Q 23.390625 74.21875 37.203125 74.21875 
Q 40.921875 74.21875 44.703125 73.484375 
Q 48.484375 72.75 52.59375 71.296875 
z
" id="DejaVuSans-54"/>
       </defs>
       <use xlink:href="#DejaVuSans-54"/>
       <use x="63.623047" xlink:href="#DejaVuSans-48"/>
      </g>
     </g>
    </g>
    <g id="xtick_5">
     <g id="line2d_5">
      <g>
       <use style="stroke:#000000;stroke-width:0.8;" x="379.941545" xlink:href="#m1a26320d0c" y="242.6328"/>
      </g>
     </g>
     <g id="text_5">
      <!-- 80 -->
      <g transform="translate(373.579045 257.231237)scale(0.1 -0.1)">
       <defs>
        <path d="M 31.78125 34.625 
Q 24.75 34.625 20.71875 30.859375 
Q 16.703125 27.09375 16.703125 20.515625 
Q 16.703125 13.921875 20.71875 10.15625 
Q 24.75 6.390625 31.78125 6.390625 
Q 38.8125 6.390625 42.859375 10.171875 
Q 46.921875 13.96875 46.921875 20.515625 
Q 46.921875 27.09375 42.890625 30.859375 
Q 38.875 34.625 31.78125 34.625 
z
M 21.921875 38.8125 
Q 15.578125 40.375 12.03125 44.71875 
Q 8.5 49.078125 8.5 55.328125 
Q 8.5 64.0625 14.71875 69.140625 
Q 20.953125 74.21875 31.78125 74.21875 
Q 42.671875 74.21875 48.875 69.140625 
Q 55.078125 64.0625 55.078125 55.328125 
Q 55.078125 49.078125 51.53125 44.71875 
Q 48 40.375 41.703125 38.8125 
Q 48.828125 37.15625 52.796875 32.3125 
Q 56.78125 27.484375 56.78125 20.515625 
Q 56.78125 9.90625 50.3125 4.234375 
Q 43.84375 -1.421875 31.78125 -1.421875 
Q 19.734375 -1.421875 13.25 4.234375 
Q 6.78125 9.90625 6.78125 20.515625 
Q 6.78125 27.484375 10.78125 32.3125 
Q 14.796875 37.15625 21.921875 38.8125 
z
M 18.3125 54.390625 
Q 18.3125 48.734375 21.84375 45.5625 
Q 25.390625 42.390625 31.78125 42.390625 
Q 38.140625 42.390625 41.71875 45.5625 
Q 45.3125 48.734375 45.3125 54.390625 
Q 45.3125 60.0625 41.71875 63.234375 
Q 38.140625 66.40625 31.78125 66.40625 
Q 25.390625 66.40625 21.84375 63.234375 
Q 18.3125 60.0625 18.3125 54.390625 
z
" id="DejaVuSans-56"/>
       </defs>
       <use xlink:href="#DejaVuSans-56"/>
       <use x="63.623047" xlink:href="#DejaVuSans-48"/>
      </g>
     </g>
    </g>
    <g id="xtick_6">
     <g id="line2d_6">
      <g>
       <use style="stroke:#000000;stroke-width:0.8;" x="453.901909" xlink:href="#m1a26320d0c" y="242.6328"/>
      </g>
     </g>
     <g id="text_6">
      <!-- 100 -->
      <g transform="translate(444.358159 257.231237)scale(0.1 -0.1)">
       <defs>
        <path d="M 12.40625 8.296875 
L 28.515625 8.296875 
L 28.515625 63.921875 
L 10.984375 60.40625 
L 10.984375 69.390625 
L 28.421875 72.90625 
L 38.28125 72.90625 
L 38.28125 8.296875 
L 54.390625 8.296875 
L 54.390625 0 
L 12.40625 0 
z
" id="DejaVuSans-49"/>
       </defs>
       <use xlink:href="#DejaVuSans-49"/>
       <use x="63.623047" xlink:href="#DejaVuSans-48"/>
       <use x="127.246094" xlink:href="#DejaVuSans-48"/>
      </g>
     </g>
    </g>
   </g>
   <g id="matplotlib.axis_2">
    <g id="ytick_1">
     <g id="line2d_7">
      <defs>
       <path d="M 0 0 
L -3.5 0 
" id="mad9ad0b8c4" style="stroke:#000000;stroke-width:0.8;"/>
      </defs>
      <g>
       <use style="stroke:#000000;stroke-width:0.8;" x="65.61" xlink:href="#mad9ad0b8c4" y="219.245893"/>
      </g>
     </g>
     <g id="text_7">
      <!-- 0 -->
      <g transform="translate(52.2475 223.045112)scale(0.1 -0.1)">
       <use xlink:href="#DejaVuSans-48"/>
      </g>
     </g>
    </g>
    <g id="ytick_2">
     <g id="line2d_8">
      <g>
       <use style="stroke:#000000;stroke-width:0.8;" x="65.61" xlink:href="#mad9ad0b8c4" y="193.120621"/>
      </g>
     </g>
     <g id="text_8">
      <!-- 200 -->
      <g transform="translate(39.5225 196.919839)scale(0.1 -0.1)">
       <use xlink:href="#DejaVuSans-50"/>
       <use x="63.623047" xlink:href="#DejaVuSans-48"/>
       <use x="127.246094" xlink:href="#DejaVuSans-48"/>
      </g>
     </g>
    </g>
    <g id="ytick_3">
     <g id="line2d_9">
      <g>
       <use style="stroke:#000000;stroke-width:0.8;" x="65.61" xlink:href="#mad9ad0b8c4" y="166.995349"/>
      </g>
     </g>
     <g id="text_9">
      <!-- 400 -->
      <g transform="translate(39.5225 170.794567)scale(0.1 -0.1)">
       <use xlink:href="#DejaVuSans-52"/>
       <use x="63.623047" xlink:href="#DejaVuSans-48"/>
       <use x="127.246094" xlink:href="#DejaVuSans-48"/>
      </g>
     </g>
    </g>
    <g id="ytick_4">
     <g id="line2d_10">
      <g>
       <use style="stroke:#000000;stroke-width:0.8;" x="65.61" xlink:href="#mad9ad0b8c4" y="140.870077"/>
      </g>
     </g>
     <g id="text_10">
      <!-- 600 -->
      <g transform="translate(39.5225 144.669295)scale(0.1 -0.1)">
       <use xlink:href="#DejaVuSans-54"/>
       <use x="63.623047" xlink:href="#DejaVuSans-48"/>
       <use x="127.246094" xlink:href="#DejaVuSans-48"/>
      </g>
     </g>
    </g>
    <g id="ytick_5">
     <g id="line2d_11">
      <g>
       <use style="stroke:#000000;stroke-width:0.8;" x="65.61" xlink:href="#mad9ad0b8c4" y="114.744805"/>
      </g>
     </g>
     <g id="text_11">
      <!-- 800 -->
      <g transform="translate(39.5225 118.544023)scale(0.1 -0.1)">
       <use xlink:href="#DejaVuSans-56"/>
       <use x="63.623047" xlink:href="#DejaVuSans-48"/>
       <use x="127.246094" xlink:href="#DejaVuSans-48"/>
      </g>
     </g>
    </g>
    <g id="ytick_6">
     <g id="line2d_12">
      <g>
       <use style="stroke:#000000;stroke-width:0.8;" x="65.61" xlink:href="#mad9ad0b8c4" y="88.619532"/>
      </g>
     </g>
     <g id="text_12">
      <!-- 1000 -->
      <g transform="translate(33.16 92.418751)scale(0.1 -0.1)">
       <use xlink:href="#DejaVuSans-49"/>
       <use x="63.623047" xlink:href="#DejaVuSans-48"/>
       <use x="127.246094" xlink:href="#DejaVuSans-48"/>
       <use x="190.869141" xlink:href="#DejaVuSans-48"/>
      </g>
     </g>
    </g>
    <g id="ytick_7">
     <g id="line2d_13">
      <g>
       <use style="stroke:#000000;stroke-width:0.8;" x="65.61" xlink:href="#mad9ad0b8c4" y="62.49426"/>
      </g>
     </g>
     <g id="text_13">
      <!-- 1200 -->
      <g transform="translate(33.16 66.293479)scale(0.1 -0.1)">
       <use xlink:href="#DejaVuSans-49"/>
       <use x="63.623047" xlink:href="#DejaVuSans-50"/>
       <use x="127.246094" xlink:href="#DejaVuSans-48"/>
       <use x="190.869141" xlink:href="#DejaVuSans-48"/>
      </g>
     </g>
    </g>
   </g>
   <g id="line2d_14">
    <path clip-path="url(#pac5d75a2db)" d="M 84.100091 234.419891 
L 87.798109 233.30191 
L 91.496127 232.070428 
L 95.194145 230.718366 
L 98.892164 229.238516 
L 102.590182 227.623594 
L 106.2882 225.866298 
L 109.986218 223.959375 
L 113.684236 221.895703 
L 117.382255 219.668384 
L 121.080273 217.270843 
L 124.778291 214.69695 
L 128.476309 211.941144 
L 132.174327 208.998575 
L 135.872345 205.865264 
L 139.570364 202.538265 
L 143.268382 199.01585 
L 146.9664 195.297699 
L 150.664418 191.3851 
L 154.362436 187.281163 
L 158.060455 182.991024 
L 161.758473 178.52206 
L 165.456491 173.884084 
L 169.154509 169.089522 
L 172.852527 164.153561 
L 176.550545 159.094243 
L 180.248564 153.932501 
L 183.946582 148.69211 
L 187.6446 143.399535 
L 191.342618 138.083683 
L 195.040636 132.775513 
L 198.738655 127.507547 
L 202.436673 122.313266 
L 206.134691 117.226415 
L 209.832709 112.280275 
L 213.530727 107.506915 
L 217.228745 102.936494 
L 220.926764 98.596659 
L 224.624782 94.512067 
L 228.3228 90.704073 
L 232.020818 87.190597 
L 235.718836 83.986156 
L 239.416855 81.102055 
L 243.114873 78.546705 
L 246.812891 76.326028 
L 250.510909 74.443909 
L 254.208927 72.902671 
L 257.906945 71.703515 
L 261.604964 70.846927 
L 265.302982 70.333006 
L 269.001 70.161709 
L 272.699018 70.333006 
L 276.397036 70.846927 
L 280.095055 71.703515 
L 283.793073 72.902671 
L 287.491091 74.443909 
L 291.189109 76.326028 
L 294.887127 78.546705 
L 298.585145 81.102055 
L 302.283164 83.986156 
L 305.981182 87.190597 
L 309.6792 90.704073 
L 313.377218 94.512067 
L 317.075236 98.596659 
L 320.773255 102.936494 
L 324.471273 107.506915 
L 328.169291 112.280275 
L 331.867309 117.226415 
L 335.565327 122.313266 
L 339.263345 127.507547 
L 342.961364 132.775513 
L 346.659382 138.083683 
L 350.3574 143.399535 
L 354.055418 148.69211 
L 357.753436 153.932501 
L 361.451455 159.094243 
L 365.149473 164.153561 
L 368.847491 169.089522 
L 372.545509 173.884084 
L 376.243527 178.52206 
L 379.941545 182.991024 
L 383.639564 187.281163 
L 387.337582 191.3851 
L 391.0356 195.297699 
L 394.733618 199.01585 
L 398.431636 202.538265 
L 402.129655 205.865264 
L 405.827673 208.998575 
L 409.525691 211.941144 
L 413.223709 214.69695 
L 416.921727 217.270843 
L 420.619745 219.668384 
L 424.317764 221.895703 
L 428.015782 223.959375 
L 431.7138 225.866298 
L 435.411818 227.623594 
L 439.109836 229.238516 
L 442.807855 230.718366 
L 446.505873 232.070428 
L 450.203891 233.30191 
L 453.901909 234.419891 
" style="fill:none;stroke:#1f77b4;stroke-linecap:square;stroke-width:1.5;"/>
    <defs>
     <path d="M 0 3 
C 0.795609 3 1.55874 2.683901 2.12132 2.12132 
C 2.683901 1.55874 3 0.795609 3 0 
C 3 -0.795609 2.683901 -1.55874 2.12132 -2.12132 
C 1.55874 -2.683901 0.795609 -3 0 -3 
C -0.795609 -3 -1.55874 -2.683901 -2.12132 -2.12132 
C -2.683901 -1.55874 -3 -0.795609 -3 0 
C -3 0.795609 -2.683901 1.55874 -2.12132 2.12132 
C -1.55874 2.683901 -0.795609 3 0 3 
z
" id="mcb02402c8a" style="stroke:#1f77b4;"/>
    </defs>
    <g clip-path="url(#pac5d75a2db)">
     <use style="fill:#1f77b4;stroke:#1f77b4;" x="84.100091" xlink:href="#mcb02402c8a" y="234.419891"/>
     <use style="fill:#1f77b4;stroke:#1f77b4;" x="87.798109" xlink:href="#mcb02402c8a" y="233.30191"/>
     <use style="fill:#1f77b4;stroke:#1f77b4;" x="91.496127" xlink:href="#mcb02402c8a" y="232.070428"/>
     <use style="fill:#1f77b4;stroke:#1f77b4;" x="95.194145" xlink:href="#mcb02402c8a" y="230.718366"/>
     <use style="fill:#1f77b4;stroke:#1f77b4;" x="98.892164" xlink:href="#mcb02402c8a" y="229.238516"/>
     <use style="fill:#1f77b4;stroke:#1f77b4;" x="102.590182" xlink:href="#mcb02402c8a" y="227.623594"/>
     <use style="fill:#1f77b4;stroke:#1f77b4;" x="106.2882" xlink:href="#mcb02402c8a" y="225.866298"/>
     <use style="fill:#1f77b4;stroke:#1f77b4;" x="109.986218" xlink:href="#mcb02402c8a" y="223.959375"/>
     <use style="fill:#1f77b4;stroke:#1f77b4;" x="113.684236" xlink:href="#mcb02402c8a" y="221.895703"/>
     <use style="fill:#1f77b4;stroke:#1f77b4;" x="117.382255" xlink:href="#mcb02402c8a" y="219.668384"/>
     <use style="fill:#1f77b4;stroke:#1f77b4;" x="121.080273" xlink:href="#mcb02402c8a" y="217.270843"/>
     <use style="fill:#1f77b4;stroke:#1f77b4;" x="124.778291" xlink:href="#mcb02402c8a" y="214.69695"/>
     <use style="fill:#1f77b4;stroke:#1f77b4;" x="128.476309" xlink:href="#mcb02402c8a" y="211.941144"/>
     <use style="fill:#1f77b4;stroke:#1f77b4;" x="132.174327" xlink:href="#mcb02402c8a" y="208.998575"/>
     <use style="fill:#1f77b4;stroke:#1f77b4;" x="135.872345" xlink:href="#mcb02402c8a" y="205.865264"/>
     <use style="fill:#1f77b4;stroke:#1f77b4;" x="139.570364" xlink:href="#mcb02402c8a" y="202.538265"/>
     <use style="fill:#1f77b4;stroke:#1f77b4;" x="143.268382" xlink:href="#mcb02402c8a" y="199.01585"/>
     <use style="fill:#1f77b4;stroke:#1f77b4;" x="146.9664" xlink:href="#mcb02402c8a" y="195.297699"/>
     <use style="fill:#1f77b4;stroke:#1f77b4;" x="150.664418" xlink:href="#mcb02402c8a" y="191.3851"/>
     <use style="fill:#1f77b4;stroke:#1f77b4;" x="154.362436" xlink:href="#mcb02402c8a" y="187.281163"/>
     <use style="fill:#1f77b4;stroke:#1f77b4;" x="158.060455" xlink:href="#mcb02402c8a" y="182.991024"/>
     <use style="fill:#1f77b4;stroke:#1f77b4;" x="161.758473" xlink:href="#mcb02402c8a" y="178.52206"/>
     <use style="fill:#1f77b4;stroke:#1f77b4;" x="165.456491" xlink:href="#mcb02402c8a" y="173.884084"/>
     <use style="fill:#1f77b4;stroke:#1f77b4;" x="169.154509" xlink:href="#mcb02402c8a" y="169.089522"/>
     <use style="fill:#1f77b4;stroke:#1f77b4;" x="172.852527" xlink:href="#mcb02402c8a" y="164.153561"/>
     <use style="fill:#1f77b4;stroke:#1f77b4;" x="176.550545" xlink:href="#mcb02402c8a" y="159.094243"/>
     <use style="fill:#1f77b4;stroke:#1f77b4;" x="180.248564" xlink:href="#mcb02402c8a" y="153.932501"/>
     <use style="fill:#1f77b4;stroke:#1f77b4;" x="183.946582" xlink:href="#mcb02402c8a" y="148.69211"/>
     <use style="fill:#1f77b4;stroke:#1f77b4;" x="187.6446" xlink:href="#mcb02402c8a" y="143.399535"/>
     <use style="fill:#1f77b4;stroke:#1f77b4;" x="191.342618" xlink:href="#mcb02402c8a" y="138.083683"/>
     <use style="fill:#1f77b4;stroke:#1f77b4;" x="195.040636" xlink:href="#mcb02402c8a" y="132.775513"/>
     <use style="fill:#1f77b4;stroke:#1f77b4;" x="198.738655" xlink:href="#mcb02402c8a" y="127.507547"/>
     <use style="fill:#1f77b4;stroke:#1f77b4;" x="202.436673" xlink:href="#mcb02402c8a" y="122.313266"/>
     <use style="fill:#1f77b4;stroke:#1f77b4;" x="206.134691" xlink:href="#mcb02402c8a" y="117.226415"/>
     <use style="fill:#1f77b4;stroke:#1f77b4;" x="209.832709" xlink:href="#mcb02402c8a" y="112.280275"/>
     <use style="fill:#1f77b4;stroke:#1f77b4;" x="213.530727" xlink:href="#mcb02402c8a" y="107.506915"/>
     <use style="fill:#1f77b4;stroke:#1f77b4;" x="217.228745" xlink:href="#mcb02402c8a" y="102.936494"/>
     <use style="fill:#1f77b4;stroke:#1f77b4;" x="220.926764" xlink:href="#mcb02402c8a" y="98.596659"/>
     <use style="fill:#1f77b4;stroke:#1f77b4;" x="224.624782" xlink:href="#mcb02402c8a" y="94.512067"/>
     <use style="fill:#1f77b4;stroke:#1f77b4;" x="228.3228" xlink:href="#mcb02402c8a" y="90.704073"/>
     <use style="fill:#1f77b4;stroke:#1f77b4;" x="232.020818" xlink:href="#mcb02402c8a" y="87.190597"/>
     <use style="fill:#1f77b4;stroke:#1f77b4;" x="235.718836" xlink:href="#mcb02402c8a" y="83.986156"/>
     <use style="fill:#1f77b4;stroke:#1f77b4;" x="239.416855" xlink:href="#mcb02402c8a" y="81.102055"/>
     <use style="fill:#1f77b4;stroke:#1f77b4;" x="243.114873" xlink:href="#mcb02402c8a" y="78.546705"/>
     <use style="fill:#1f77b4;stroke:#1f77b4;" x="246.812891" xlink:href="#mcb02402c8a" y="76.326028"/>
     <use style="fill:#1f77b4;stroke:#1f77b4;" x="250.510909" xlink:href="#mcb02402c8a" y="74.443909"/>
     <use style="fill:#1f77b4;stroke:#1f77b4;" x="254.208927" xlink:href="#mcb02402c8a" y="72.902671"/>
     <use style="fill:#1f77b4;stroke:#1f77b4;" x="257.906945" xlink:href="#mcb02402c8a" y="71.703515"/>
     <use style="fill:#1f77b4;stroke:#1f77b4;" x="261.604964" xlink:href="#mcb02402c8a" y="70.846927"/>
     <use style="fill:#1f77b4;stroke:#1f77b4;" x="265.302982" xlink:href="#mcb02402c8a" y="70.333006"/>
     <use style="fill:#1f77b4;stroke:#1f77b4;" x="269.001" xlink:href="#mcb02402c8a" y="70.161709"/>
     <use style="fill:#1f77b4;stroke:#1f77b4;" x="272.699018" xlink:href="#mcb02402c8a" y="70.333006"/>
     <use style="fill:#1f77b4;stroke:#1f77b4;" x="276.397036" xlink:href="#mcb02402c8a" y="70.846927"/>
     <use style="fill:#1f77b4;stroke:#1f77b4;" x="280.095055" xlink:href="#mcb02402c8a" y="71.703515"/>
     <use style="fill:#1f77b4;stroke:#1f77b4;" x="283.793073" xlink:href="#mcb02402c8a" y="72.902671"/>
     <use style="fill:#1f77b4;stroke:#1f77b4;" x="287.491091" xlink:href="#mcb02402c8a" y="74.443909"/>
     <use style="fill:#1f77b4;stroke:#1f77b4;" x="291.189109" xlink:href="#mcb02402c8a" y="76.326028"/>
     <use style="fill:#1f77b4;stroke:#1f77b4;" x="294.887127" xlink:href="#mcb02402c8a" y="78.546705"/>
     <use style="fill:#1f77b4;stroke:#1f77b4;" x="298.585145" xlink:href="#mcb02402c8a" y="81.102055"/>
     <use style="fill:#1f77b4;stroke:#1f77b4;" x="302.283164" xlink:href="#mcb02402c8a" y="83.986156"/>
     <use style="fill:#1f77b4;stroke:#1f77b4;" x="305.981182" xlink:href="#mcb02402c8a" y="87.190597"/>
     <use style="fill:#1f77b4;stroke:#1f77b4;" x="309.6792" xlink:href="#mcb02402c8a" y="90.704073"/>
     <use style="fill:#1f77b4;stroke:#1f77b4;" x="313.377218" xlink:href="#mcb02402c8a" y="94.512067"/>
     <use style="fill:#1f77b4;stroke:#1f77b4;" x="317.075236" xlink:href="#mcb02402c8a" y="98.596659"/>
     <use style="fill:#1f77b4;stroke:#1f77b4;" x="320.773255" xlink:href="#mcb02402c8a" y="102.936494"/>
     <use style="fill:#1f77b4;stroke:#1f77b4;" x="324.471273" xlink:href="#mcb02402c8a" y="107.506915"/>
     <use style="fill:#1f77b4;stroke:#1f77b4;" x="328.169291" xlink:href="#mcb02402c8a" y="112.280275"/>
     <use style="fill:#1f77b4;stroke:#1f77b4;" x="331.867309" xlink:href="#mcb02402c8a" y="117.226415"/>
     <use style="fill:#1f77b4;stroke:#1f77b4;" x="335.565327" xlink:href="#mcb02402c8a" y="122.313266"/>
     <use style="fill:#1f77b4;stroke:#1f77b4;" x="339.263345" xlink:href="#mcb02402c8a" y="127.507547"/>
     <use style="fill:#1f77b4;stroke:#1f77b4;" x="342.961364" xlink:href="#mcb02402c8a" y="132.775513"/>
     <use style="fill:#1f77b4;stroke:#1f77b4;" x="346.659382" xlink:href="#mcb02402c8a" y="138.083683"/>
     <use style="fill:#1f77b4;stroke:#1f77b4;" x="350.3574" xlink:href="#mcb02402c8a" y="143.399535"/>
     <use style="fill:#1f77b4;stroke:#1f77b4;" x="354.055418" xlink:href="#mcb02402c8a" y="148.69211"/>
     <use style="fill:#1f77b4;stroke:#1f77b4;" x="357.753436" xlink:href="#mcb02402c8a" y="153.932501"/>
     <use style="fill:#1f77b4;stroke:#1f77b4;" x="361.451455" xlink:href="#mcb02402c8a" y="159.094243"/>
     <use style="fill:#1f77b4;stroke:#1f77b4;" x="365.149473" xlink:href="#mcb02402c8a" y="164.153561"/>
     <use style="fill:#1f77b4;stroke:#1f77b4;" x="368.847491" xlink:href="#mcb02402c8a" y="169.089522"/>
     <use style="fill:#1f77b4;stroke:#1f77b4;" x="372.545509" xlink:href="#mcb02402c8a" y="173.884084"/>
     <use style="fill:#1f77b4;stroke:#1f77b4;" x="376.243527" xlink:href="#mcb02402c8a" y="178.52206"/>
     <use style="fill:#1f77b4;stroke:#1f77b4;" x="379.941545" xlink:href="#mcb02402c8a" y="182.991024"/>
     <use style="fill:#1f77b4;stroke:#1f77b4;" x="383.639564" xlink:href="#mcb02402c8a" y="187.281163"/>
     <use style="fill:#1f77b4;stroke:#1f77b4;" x="387.337582" xlink:href="#mcb02402c8a" y="191.3851"/>
     <use style="fill:#1f77b4;stroke:#1f77b4;" x="391.0356" xlink:href="#mcb02402c8a" y="195.297699"/>
     <use style="fill:#1f77b4;stroke:#1f77b4;" x="394.733618" xlink:href="#mcb02402c8a" y="199.01585"/>
     <use style="fill:#1f77b4;stroke:#1f77b4;" x="398.431636" xlink:href="#mcb02402c8a" y="202.538265"/>
     <use style="fill:#1f77b4;stroke:#1f77b4;" x="402.129655" xlink:href="#mcb02402c8a" y="205.865264"/>
     <use style="fill:#1f77b4;stroke:#1f77b4;" x="405.827673" xlink:href="#mcb02402c8a" y="208.998575"/>
     <use style="fill:#1f77b4;stroke:#1f77b4;" x="409.525691" xlink:href="#mcb02402c8a" y="211.941144"/>
     <use style="fill:#1f77b4;stroke:#1f77b4;" x="413.223709" xlink:href="#mcb02402c8a" y="214.69695"/>
     <use style="fill:#1f77b4;stroke:#1f77b4;" x="416.921727" xlink:href="#mcb02402c8a" y="217.270843"/>
     <use style="fill:#1f77b4;stroke:#1f77b4;" x="420.619745" xlink:href="#mcb02402c8a" y="219.668384"/>
     <use style="fill:#1f77b4;stroke:#1f77b4;" x="424.317764" xlink:href="#mcb02402c8a" y="221.895703"/>
     <use style="fill:#1f77b4;stroke:#1f77b4;" x="428.015782" xlink:href="#mcb02402c8a" y="223.959375"/>
     <use style="fill:#1f77b4;stroke:#1f77b4;" x="431.7138" xlink:href="#mcb02402c8a" y="225.866298"/>
     <use style="fill:#1f77b4;stroke:#1f77b4;" x="435.411818" xlink:href="#mcb02402c8a" y="227.623594"/>
     <use style="fill:#1f77b4;stroke:#1f77b4;" x="439.109836" xlink:href="#mcb02402c8a" y="229.238516"/>
     <use style="fill:#1f77b4;stroke:#1f77b4;" x="442.807855" xlink:href="#mcb02402c8a" y="230.718366"/>
     <use style="fill:#1f77b4;stroke:#1f77b4;" x="446.505873" xlink:href="#mcb02402c8a" y="232.070428"/>
     <use style="fill:#1f77b4;stroke:#1f77b4;" x="450.203891" xlink:href="#mcb02402c8a" y="233.30191"/>
     <use style="fill:#1f77b4;stroke:#1f77b4;" x="453.901909" xlink:href="#mcb02402c8a" y="234.419891"/>
    </g>
   </g>
   <g id="patch_3">
    <path d="M 65.61 242.6328 
L 65.61 61.9488 
" style="fill:none;stroke:#000000;stroke-linecap:square;stroke-linejoin:miter;stroke-width:0.8;"/>
   </g>
   <g id="patch_4">
    <path d="M 472.392 242.6328 
L 472.392 61.9488 
" style="fill:none;stroke:#000000;stroke-linecap:square;stroke-linejoin:miter;stroke-width:0.8;"/>
   </g>
   <g id="patch_5">
    <path d="M 65.61 242.6328 
L 472.392 242.6328 
" style="fill:none;stroke:#000000;stroke-linecap:square;stroke-linejoin:miter;stroke-width:0.8;"/>
   </g>
   <g id="patch_6">
    <path d="M 65.61 61.9488 
L 472.392 61.9488 
" style="fill:none;stroke:#000000;stroke-linecap:square;stroke-linejoin:miter;stroke-width:0.8;"/>
   </g>
   <g id="text_14">
    <!-- Magnetic anomaly -->
    <g transform="translate(213.728812 55.9488)scale(0.12 -0.12)">
     <defs>
      <path d="M 9.8125 72.90625 
L 24.515625 72.90625 
L 43.109375 23.296875 
L 61.8125 72.90625 
L 76.515625 72.90625 
L 76.515625 0 
L 66.890625 0 
L 66.890625 64.015625 
L 48.09375 14.015625 
L 38.1875 14.015625 
L 19.390625 64.015625 
L 19.390625 0 
L 9.8125 0 
z
" id="DejaVuSans-77"/>
      <path d="M 34.28125 27.484375 
Q 23.390625 27.484375 19.1875 25 
Q 14.984375 22.515625 14.984375 16.5 
Q 14.984375 11.71875 18.140625 8.90625 
Q 21.296875 6.109375 26.703125 6.109375 
Q 34.1875 6.109375 38.703125 11.40625 
Q 43.21875 16.703125 43.21875 25.484375 
L 43.21875 27.484375 
z
M 52.203125 31.203125 
L 52.203125 0 
L 43.21875 0 
L 43.21875 8.296875 
Q 40.140625 3.328125 35.546875 0.953125 
Q 30.953125 -1.421875 24.3125 -1.421875 
Q 15.921875 -1.421875 10.953125 3.296875 
Q 6 8.015625 6 15.921875 
Q 6 25.140625 12.171875 29.828125 
Q 18.359375 34.515625 30.609375 34.515625 
L 43.21875 34.515625 
L 43.21875 35.40625 
Q 43.21875 41.609375 39.140625 45 
Q 35.0625 48.390625 27.6875 48.390625 
Q 23 48.390625 18.546875 47.265625 
Q 14.109375 46.140625 10.015625 43.890625 
L 10.015625 52.203125 
Q 14.9375 54.109375 19.578125 55.046875 
Q 24.21875 56 28.609375 56 
Q 40.484375 56 46.34375 49.84375 
Q 52.203125 43.703125 52.203125 31.203125 
z
" id="DejaVuSans-97"/>
      <path d="M 45.40625 27.984375 
Q 45.40625 37.75 41.375 43.109375 
Q 37.359375 48.484375 30.078125 48.484375 
Q 22.859375 48.484375 18.828125 43.109375 
Q 14.796875 37.75 14.796875 27.984375 
Q 14.796875 18.265625 18.828125 12.890625 
Q 22.859375 7.515625 30.078125 7.515625 
Q 37.359375 7.515625 41.375 12.890625 
Q 45.40625 18.265625 45.40625 27.984375 
z
M 54.390625 6.78125 
Q 54.390625 -7.171875 48.1875 -13.984375 
Q 42 -20.796875 29.203125 -20.796875 
Q 24.46875 -20.796875 20.265625 -20.09375 
Q 16.0625 -19.390625 12.109375 -17.921875 
L 12.109375 -9.1875 
Q 16.0625 -11.328125 19.921875 -12.34375 
Q 23.78125 -13.375 27.78125 -13.375 
Q 36.625 -13.375 41.015625 -8.765625 
Q 45.40625 -4.15625 45.40625 5.171875 
L 45.40625 9.625 
Q 42.625 4.78125 38.28125 2.390625 
Q 33.9375 0 27.875 0 
Q 17.828125 0 11.671875 7.65625 
Q 5.515625 15.328125 5.515625 27.984375 
Q 5.515625 40.671875 11.671875 48.328125 
Q 17.828125 56 27.875 56 
Q 33.9375 56 38.28125 53.609375 
Q 42.625 51.21875 45.40625 46.390625 
L 45.40625 54.6875 
L 54.390625 54.6875 
z
" id="DejaVuSans-103"/>
      <path d="M 54.890625 33.015625 
L 54.890625 0 
L 45.90625 0 
L 45.90625 32.71875 
Q 45.90625 40.484375 42.875 44.328125 
Q 39.84375 48.1875 33.796875 48.1875 
Q 26.515625 48.1875 22.3125 43.546875 
Q 18.109375 38.921875 18.109375 30.90625 
L 18.109375 0 
L 9.078125 0 
L 9.078125 54.6875 
L 18.109375 54.6875 
L 18.109375 46.1875 
Q 21.34375 51.125 25.703125 53.5625 
Q 30.078125 56 35.796875 56 
Q 45.21875 56 50.046875 50.171875 
Q 54.890625 44.34375 54.890625 33.015625 
z
" id="DejaVuSans-110"/>
      <path d="M 56.203125 29.59375 
L 56.203125 25.203125 
L 14.890625 25.203125 
Q 15.484375 15.921875 20.484375 11.0625 
Q 25.484375 6.203125 34.421875 6.203125 
Q 39.59375 6.203125 44.453125 7.46875 
Q 49.3125 8.734375 54.109375 11.28125 
L 54.109375 2.78125 
Q 49.265625 0.734375 44.1875 -0.34375 
Q 39.109375 -1.421875 33.890625 -1.421875 
Q 20.796875 -1.421875 13.15625 6.1875 
Q 5.515625 13.8125 5.515625 26.8125 
Q 5.515625 40.234375 12.765625 48.109375 
Q 20.015625 56 32.328125 56 
Q 43.359375 56 49.78125 48.890625 
Q 56.203125 41.796875 56.203125 29.59375 
z
M 47.21875 32.234375 
Q 47.125 39.59375 43.09375 43.984375 
Q 39.0625 48.390625 32.421875 48.390625 
Q 24.90625 48.390625 20.390625 44.140625 
Q 15.875 39.890625 15.1875 32.171875 
z
" id="DejaVuSans-101"/>
      <path d="M 18.3125 70.21875 
L 18.3125 54.6875 
L 36.8125 54.6875 
L 36.8125 47.703125 
L 18.3125 47.703125 
L 18.3125 18.015625 
Q 18.3125 11.328125 20.140625 9.421875 
Q 21.96875 7.515625 27.59375 7.515625 
L 36.8125 7.515625 
L 36.8125 0 
L 27.59375 0 
Q 17.1875 0 13.234375 3.875 
Q 9.28125 7.765625 9.28125 18.015625 
L 9.28125 47.703125 
L 2.6875 47.703125 
L 2.6875 54.6875 
L 9.28125 54.6875 
L 9.28125 70.21875 
z
" id="DejaVuSans-116"/>
      <path d="M 9.421875 54.6875 
L 18.40625 54.6875 
L 18.40625 0 
L 9.421875 0 
z
M 9.421875 75.984375 
L 18.40625 75.984375 
L 18.40625 64.59375 
L 9.421875 64.59375 
z
" id="DejaVuSans-105"/>
      <path d="M 48.78125 52.59375 
L 48.78125 44.1875 
Q 44.96875 46.296875 41.140625 47.34375 
Q 37.3125 48.390625 33.40625 48.390625 
Q 24.65625 48.390625 19.8125 42.84375 
Q 14.984375 37.3125 14.984375 27.296875 
Q 14.984375 17.28125 19.8125 11.734375 
Q 24.65625 6.203125 33.40625 6.203125 
Q 37.3125 6.203125 41.140625 7.25 
Q 44.96875 8.296875 48.78125 10.40625 
L 48.78125 2.09375 
Q 45.015625 0.34375 40.984375 -0.53125 
Q 36.96875 -1.421875 32.421875 -1.421875 
Q 20.0625 -1.421875 12.78125 6.34375 
Q 5.515625 14.109375 5.515625 27.296875 
Q 5.515625 40.671875 12.859375 48.328125 
Q 20.21875 56 33.015625 56 
Q 37.15625 56 41.109375 55.140625 
Q 45.0625 54.296875 48.78125 52.59375 
z
" id="DejaVuSans-99"/>
      <path id="DejaVuSans-32"/>
      <path d="M 30.609375 48.390625 
Q 23.390625 48.390625 19.1875 42.75 
Q 14.984375 37.109375 14.984375 27.296875 
Q 14.984375 17.484375 19.15625 11.84375 
Q 23.34375 6.203125 30.609375 6.203125 
Q 37.796875 6.203125 41.984375 11.859375 
Q 46.1875 17.53125 46.1875 27.296875 
Q 46.1875 37.015625 41.984375 42.703125 
Q 37.796875 48.390625 30.609375 48.390625 
z
M 30.609375 56 
Q 42.328125 56 49.015625 48.375 
Q 55.71875 40.765625 55.71875 27.296875 
Q 55.71875 13.875 49.015625 6.21875 
Q 42.328125 -1.421875 30.609375 -1.421875 
Q 18.84375 -1.421875 12.171875 6.21875 
Q 5.515625 13.875 5.515625 27.296875 
Q 5.515625 40.765625 12.171875 48.375 
Q 18.84375 56 30.609375 56 
z
" id="DejaVuSans-111"/>
      <path d="M 52 44.1875 
Q 55.375 50.25 60.0625 53.125 
Q 64.75 56 71.09375 56 
Q 79.640625 56 84.28125 50.015625 
Q 88.921875 44.046875 88.921875 33.015625 
L 88.921875 0 
L 79.890625 0 
L 79.890625 32.71875 
Q 79.890625 40.578125 77.09375 44.375 
Q 74.3125 48.1875 68.609375 48.1875 
Q 61.625 48.1875 57.5625 43.546875 
Q 53.515625 38.921875 53.515625 30.90625 
L 53.515625 0 
L 44.484375 0 
L 44.484375 32.71875 
Q 44.484375 40.625 41.703125 44.40625 
Q 38.921875 48.1875 33.109375 48.1875 
Q 26.21875 48.1875 22.15625 43.53125 
Q 18.109375 38.875 18.109375 30.90625 
L 18.109375 0 
L 9.078125 0 
L 9.078125 54.6875 
L 18.109375 54.6875 
L 18.109375 46.1875 
Q 21.1875 51.21875 25.484375 53.609375 
Q 29.78125 56 35.6875 56 
Q 41.65625 56 45.828125 52.96875 
Q 50 49.953125 52 44.1875 
z
" id="DejaVuSans-109"/>
      <path d="M 9.421875 75.984375 
L 18.40625 75.984375 
L 18.40625 0 
L 9.421875 0 
z
" id="DejaVuSans-108"/>
      <path d="M 32.171875 -5.078125 
Q 28.375 -14.84375 24.75 -17.8125 
Q 21.140625 -20.796875 15.09375 -20.796875 
L 7.90625 -20.796875 
L 7.90625 -13.28125 
L 13.1875 -13.28125 
Q 16.890625 -13.28125 18.9375 -11.515625 
Q 21 -9.765625 23.484375 -3.21875 
L 25.09375 0.875 
L 2.984375 54.6875 
L 12.5 54.6875 
L 29.59375 11.921875 
L 46.6875 54.6875 
L 56.203125 54.6875 
z
" id="DejaVuSans-121"/>
     </defs>
     <use xlink:href="#DejaVuSans-77"/>
     <use x="86.279297" xlink:href="#DejaVuSans-97"/>
     <use x="147.558594" xlink:href="#DejaVuSans-103"/>
     <use x="211.035156" xlink:href="#DejaVuSans-110"/>
     <use x="274.414062" xlink:href="#DejaVuSans-101"/>
     <use x="335.9375" xlink:href="#DejaVuSans-116"/>
     <use x="375.146484" xlink:href="#DejaVuSans-105"/>
     <use x="402.929688" xlink:href="#DejaVuSans-99"/>
     <use x="457.910156" xlink:href="#DejaVuSans-32"/>
     <use x="489.697266" xlink:href="#DejaVuSans-97"/>
     <use x="550.976562" xlink:href="#DejaVuSans-110"/>
     <use x="614.355469" xlink:href="#DejaVuSans-111"/>
     <use x="675.537109" xlink:href="#DejaVuSans-109"/>
     <use x="772.949219" xlink:href="#DejaVuSans-97"/>
     <use x="834.228516" xlink:href="#DejaVuSans-108"/>
     <use x="862.011719" xlink:href="#DejaVuSans-121"/>
    </g>
   </g>
  </g>
  <g id="axes_2">
   <g id="patch_7">
    <path d="M 65.61 459.4536 
L 472.392 459.4536 
L 472.392 278.7696 
L 65.61 278.7696 
z
" style="fill:#ffffff;"/>
   </g>
   <g id="matplotlib.axis_3">
    <g id="xtick_7">
     <g id="line2d_15">
      <g>
       <use style="stroke:#000000;stroke-width:0.8;" x="84.100091" xlink:href="#m1a26320d0c" y="459.4536"/>
      </g>
     </g>
     <g id="text_15">
      <!-- 20 -->
      <g transform="translate(77.737591 474.052038)scale(0.1 -0.1)">
       <use xlink:href="#DejaVuSans-50"/>
       <use x="63.623047" xlink:href="#DejaVuSans-48"/>
      </g>
     </g>
    </g>
    <g id="xtick_8">
     <g id="line2d_16">
      <g>
       <use style="stroke:#000000;stroke-width:0.8;" x="145.733727" xlink:href="#m1a26320d0c" y="459.4536"/>
      </g>
     </g>
     <g id="text_16">
      <!-- 30 -->
      <g transform="translate(139.371227 474.052038)scale(0.1 -0.1)">
       <defs>
        <path d="M 40.578125 39.3125 
Q 47.65625 37.796875 51.625 33 
Q 55.609375 28.21875 55.609375 21.1875 
Q 55.609375 10.40625 48.1875 4.484375 
Q 40.765625 -1.421875 27.09375 -1.421875 
Q 22.515625 -1.421875 17.65625 -0.515625 
Q 12.796875 0.390625 7.625 2.203125 
L 7.625 11.71875 
Q 11.71875 9.328125 16.59375 8.109375 
Q 21.484375 6.890625 26.8125 6.890625 
Q 36.078125 6.890625 40.9375 10.546875 
Q 45.796875 14.203125 45.796875 21.1875 
Q 45.796875 27.640625 41.28125 31.265625 
Q 36.765625 34.90625 28.71875 34.90625 
L 20.21875 34.90625 
L 20.21875 43.015625 
L 29.109375 43.015625 
Q 36.375 43.015625 40.234375 45.921875 
Q 44.09375 48.828125 44.09375 54.296875 
Q 44.09375 59.90625 40.109375 62.90625 
Q 36.140625 65.921875 28.71875 65.921875 
Q 24.65625 65.921875 20.015625 65.03125 
Q 15.375 64.15625 9.8125 62.3125 
L 9.8125 71.09375 
Q 15.4375 72.65625 20.34375 73.4375 
Q 25.25 74.21875 29.59375 74.21875 
Q 40.828125 74.21875 47.359375 69.109375 
Q 53.90625 64.015625 53.90625 55.328125 
Q 53.90625 49.265625 50.4375 45.09375 
Q 46.96875 40.921875 40.578125 39.3125 
z
" id="DejaVuSans-51"/>
       </defs>
       <use xlink:href="#DejaVuSans-51"/>
       <use x="63.623047" xlink:href="#DejaVuSans-48"/>
      </g>
     </g>
    </g>
    <g id="xtick_9">
     <g id="line2d_17">
      <g>
       <use style="stroke:#000000;stroke-width:0.8;" x="207.367364" xlink:href="#m1a26320d0c" y="459.4536"/>
      </g>
     </g>
     <g id="text_17">
      <!-- 40 -->
      <g transform="translate(201.004864 474.052038)scale(0.1 -0.1)">
       <use xlink:href="#DejaVuSans-52"/>
       <use x="63.623047" xlink:href="#DejaVuSans-48"/>
      </g>
     </g>
    </g>
    <g id="xtick_10">
     <g id="line2d_18">
      <g>
       <use style="stroke:#000000;stroke-width:0.8;" x="269.001" xlink:href="#m1a26320d0c" y="459.4536"/>
      </g>
     </g>
     <g id="text_18">
      <!-- 50 -->
      <g transform="translate(262.6385 474.052038)scale(0.1 -0.1)">
       <defs>
        <path d="M 10.796875 72.90625 
L 49.515625 72.90625 
L 49.515625 64.59375 
L 19.828125 64.59375 
L 19.828125 46.734375 
Q 21.96875 47.46875 24.109375 47.828125 
Q 26.265625 48.1875 28.421875 48.1875 
Q 40.625 48.1875 47.75 41.5 
Q 54.890625 34.8125 54.890625 23.390625 
Q 54.890625 11.625 47.5625 5.09375 
Q 40.234375 -1.421875 26.90625 -1.421875 
Q 22.3125 -1.421875 17.546875 -0.640625 
Q 12.796875 0.140625 7.71875 1.703125 
L 7.71875 11.625 
Q 12.109375 9.234375 16.796875 8.0625 
Q 21.484375 6.890625 26.703125 6.890625 
Q 35.15625 6.890625 40.078125 11.328125 
Q 45.015625 15.765625 45.015625 23.390625 
Q 45.015625 31 40.078125 35.4375 
Q 35.15625 39.890625 26.703125 39.890625 
Q 22.75 39.890625 18.8125 39.015625 
Q 14.890625 38.140625 10.796875 36.28125 
z
" id="DejaVuSans-53"/>
       </defs>
       <use xlink:href="#DejaVuSans-53"/>
       <use x="63.623047" xlink:href="#DejaVuSans-48"/>
      </g>
     </g>
    </g>
    <g id="xtick_11">
     <g id="line2d_19">
      <g>
       <use style="stroke:#000000;stroke-width:0.8;" x="330.634636" xlink:href="#m1a26320d0c" y="459.4536"/>
      </g>
     </g>
     <g id="text_19">
      <!-- 60 -->
      <g transform="translate(324.272136 474.052038)scale(0.1 -0.1)">
       <use xlink:href="#DejaVuSans-54"/>
       <use x="63.623047" xlink:href="#DejaVuSans-48"/>
      </g>
     </g>
    </g>
    <g id="xtick_12">
     <g id="line2d_20">
      <g>
       <use style="stroke:#000000;stroke-width:0.8;" x="392.268273" xlink:href="#m1a26320d0c" y="459.4536"/>
      </g>
     </g>
     <g id="text_20">
      <!-- 70 -->
      <g transform="translate(385.905773 474.052038)scale(0.1 -0.1)">
       <defs>
        <path d="M 8.203125 72.90625 
L 55.078125 72.90625 
L 55.078125 68.703125 
L 28.609375 0 
L 18.3125 0 
L 43.21875 64.59375 
L 8.203125 64.59375 
z
" id="DejaVuSans-55"/>
       </defs>
       <use xlink:href="#DejaVuSans-55"/>
       <use x="63.623047" xlink:href="#DejaVuSans-48"/>
      </g>
     </g>
    </g>
    <g id="xtick_13">
     <g id="line2d_21">
      <g>
       <use style="stroke:#000000;stroke-width:0.8;" x="453.901909" xlink:href="#m1a26320d0c" y="459.4536"/>
      </g>
     </g>
     <g id="text_21">
      <!-- 80 -->
      <g transform="translate(447.539409 474.052038)scale(0.1 -0.1)">
       <use xlink:href="#DejaVuSans-56"/>
       <use x="63.623047" xlink:href="#DejaVuSans-48"/>
      </g>
     </g>
    </g>
   </g>
   <g id="matplotlib.axis_4">
    <g id="ytick_8">
     <g id="line2d_22">
      <g>
       <use style="stroke:#000000;stroke-width:0.8;" x="65.61" xlink:href="#mad9ad0b8c4" y="451.240691"/>
      </g>
     </g>
     <g id="text_22">
      <!-- 20 -->
      <g transform="translate(45.885 455.03991)scale(0.1 -0.1)">
       <use xlink:href="#DejaVuSans-50"/>
       <use x="63.623047" xlink:href="#DejaVuSans-48"/>
      </g>
     </g>
    </g>
    <g id="ytick_9">
     <g id="line2d_23">
      <g>
       <use style="stroke:#000000;stroke-width:0.8;" x="65.61" xlink:href="#mad9ad0b8c4" y="423.864327"/>
      </g>
     </g>
     <g id="text_23">
      <!-- 25 -->
      <g transform="translate(45.885 427.663546)scale(0.1 -0.1)">
       <use xlink:href="#DejaVuSans-50"/>
       <use x="63.623047" xlink:href="#DejaVuSans-53"/>
      </g>
     </g>
    </g>
    <g id="ytick_10">
     <g id="line2d_24">
      <g>
       <use style="stroke:#000000;stroke-width:0.8;" x="65.61" xlink:href="#mad9ad0b8c4" y="396.487964"/>
      </g>
     </g>
     <g id="text_24">
      <!-- 30 -->
      <g transform="translate(45.885 400.287182)scale(0.1 -0.1)">
       <use xlink:href="#DejaVuSans-51"/>
       <use x="63.623047" xlink:href="#DejaVuSans-48"/>
      </g>
     </g>
    </g>
    <g id="ytick_11">
     <g id="line2d_25">
      <g>
       <use style="stroke:#000000;stroke-width:0.8;" x="65.61" xlink:href="#mad9ad0b8c4" y="369.1116"/>
      </g>
     </g>
     <g id="text_25">
      <!-- 35 -->
      <g transform="translate(45.885 372.910819)scale(0.1 -0.1)">
       <use xlink:href="#DejaVuSans-51"/>
       <use x="63.623047" xlink:href="#DejaVuSans-53"/>
      </g>
     </g>
    </g>
    <g id="ytick_12">
     <g id="line2d_26">
      <g>
       <use style="stroke:#000000;stroke-width:0.8;" x="65.61" xlink:href="#mad9ad0b8c4" y="341.735236"/>
      </g>
     </g>
     <g id="text_26">
      <!-- 40 -->
      <g transform="translate(45.885 345.534455)scale(0.1 -0.1)">
       <use xlink:href="#DejaVuSans-52"/>
       <use x="63.623047" xlink:href="#DejaVuSans-48"/>
      </g>
     </g>
    </g>
    <g id="ytick_13">
     <g id="line2d_27">
      <g>
       <use style="stroke:#000000;stroke-width:0.8;" x="65.61" xlink:href="#mad9ad0b8c4" y="314.358873"/>
      </g>
     </g>
     <g id="text_27">
      <!-- 45 -->
      <g transform="translate(45.885 318.158091)scale(0.1 -0.1)">
       <use xlink:href="#DejaVuSans-52"/>
       <use x="63.623047" xlink:href="#DejaVuSans-53"/>
      </g>
     </g>
    </g>
    <g id="ytick_14">
     <g id="line2d_28">
      <g>
       <use style="stroke:#000000;stroke-width:0.8;" x="65.61" xlink:href="#mad9ad0b8c4" y="286.982509"/>
      </g>
     </g>
     <g id="text_28">
      <!-- 50 -->
      <g transform="translate(45.885 290.781728)scale(0.1 -0.1)">
       <use xlink:href="#DejaVuSans-53"/>
       <use x="63.623047" xlink:href="#DejaVuSans-48"/>
      </g>
     </g>
    </g>
   </g>
   <g id="line2d_29">
    <path clip-path="url(#pa8481e5979)" d="M 176.550545 286.982509 
L 361.451455 286.982509 
L 453.901909 369.1116 
L 361.451455 451.240691 
L 176.550545 451.240691 
L 84.100091 369.1116 
L 176.550545 286.982509 
" style="fill:none;stroke:#1f77b4;stroke-linecap:square;stroke-width:1.5;"/>
    <g clip-path="url(#pa8481e5979)">
     <use style="fill:#1f77b4;stroke:#1f77b4;" x="176.550545" xlink:href="#mcb02402c8a" y="286.982509"/>
     <use style="fill:#1f77b4;stroke:#1f77b4;" x="361.451455" xlink:href="#mcb02402c8a" y="286.982509"/>
     <use style="fill:#1f77b4;stroke:#1f77b4;" x="453.901909" xlink:href="#mcb02402c8a" y="369.1116"/>
     <use style="fill:#1f77b4;stroke:#1f77b4;" x="361.451455" xlink:href="#mcb02402c8a" y="451.240691"/>
     <use style="fill:#1f77b4;stroke:#1f77b4;" x="176.550545" xlink:href="#mcb02402c8a" y="451.240691"/>
     <use style="fill:#1f77b4;stroke:#1f77b4;" x="84.100091" xlink:href="#mcb02402c8a" y="369.1116"/>
     <use style="fill:#1f77b4;stroke:#1f77b4;" x="176.550545" xlink:href="#mcb02402c8a" y="286.982509"/>
    </g>
   </g>
   <g id="patch_8">
    <path d="M 65.61 459.4536 
L 65.61 278.7696 
" style="fill:none;stroke:#000000;stroke-linecap:square;stroke-linejoin:miter;stroke-width:0.8;"/>
   </g>
   <g id="patch_9">
    <path d="M 472.392 459.4536 
L 472.392 278.7696 
" style="fill:none;stroke:#000000;stroke-linecap:square;stroke-linejoin:miter;stroke-width:0.8;"/>
   </g>
   <g id="patch_10">
    <path d="M 65.61 459.4536 
L 472.392 459.4536 
" style="fill:none;stroke:#000000;stroke-linecap:square;stroke-linejoin:miter;stroke-width:0.8;"/>
   </g>
   <g id="patch_11">
    <path d="M 65.61 278.7696 
L 472.392 278.7696 
" style="fill:none;stroke:#000000;stroke-linecap:square;stroke-linejoin:miter;stroke-width:0.8;"/>
   </g>
   <g id="text_29">
    <!-- Polygonal body -->
    <g transform="translate(223.33725 272.7696)scale(0.12 -0.12)">
     <defs>
      <path d="M 19.671875 64.796875 
L 19.671875 37.40625 
L 32.078125 37.40625 
Q 38.96875 37.40625 42.71875 40.96875 
Q 46.484375 44.53125 46.484375 51.125 
Q 46.484375 57.671875 42.71875 61.234375 
Q 38.96875 64.796875 32.078125 64.796875 
z
M 9.8125 72.90625 
L 32.078125 72.90625 
Q 44.34375 72.90625 50.609375 67.359375 
Q 56.890625 61.8125 56.890625 51.125 
Q 56.890625 40.328125 50.609375 34.8125 
Q 44.34375 29.296875 32.078125 29.296875 
L 19.671875 29.296875 
L 19.671875 0 
L 9.8125 0 
z
" id="DejaVuSans-80"/>
      <path d="M 48.6875 27.296875 
Q 48.6875 37.203125 44.609375 42.84375 
Q 40.53125 48.484375 33.40625 48.484375 
Q 26.265625 48.484375 22.1875 42.84375 
Q 18.109375 37.203125 18.109375 27.296875 
Q 18.109375 17.390625 22.1875 11.75 
Q 26.265625 6.109375 33.40625 6.109375 
Q 40.53125 6.109375 44.609375 11.75 
Q 48.6875 17.390625 48.6875 27.296875 
z
M 18.109375 46.390625 
Q 20.953125 51.265625 25.265625 53.625 
Q 29.59375 56 35.59375 56 
Q 45.5625 56 51.78125 48.09375 
Q 58.015625 40.1875 58.015625 27.296875 
Q 58.015625 14.40625 51.78125 6.484375 
Q 45.5625 -1.421875 35.59375 -1.421875 
Q 29.59375 -1.421875 25.265625 0.953125 
Q 20.953125 3.328125 18.109375 8.203125 
L 18.109375 0 
L 9.078125 0 
L 9.078125 75.984375 
L 18.109375 75.984375 
z
" id="DejaVuSans-98"/>
      <path d="M 45.40625 46.390625 
L 45.40625 75.984375 
L 54.390625 75.984375 
L 54.390625 0 
L 45.40625 0 
L 45.40625 8.203125 
Q 42.578125 3.328125 38.25 0.953125 
Q 33.9375 -1.421875 27.875 -1.421875 
Q 17.96875 -1.421875 11.734375 6.484375 
Q 5.515625 14.40625 5.515625 27.296875 
Q 5.515625 40.1875 11.734375 48.09375 
Q 17.96875 56 27.875 56 
Q 33.9375 56 38.25 53.625 
Q 42.578125 51.265625 45.40625 46.390625 
z
M 14.796875 27.296875 
Q 14.796875 17.390625 18.875 11.75 
Q 22.953125 6.109375 30.078125 6.109375 
Q 37.203125 6.109375 41.296875 11.75 
Q 45.40625 17.390625 45.40625 27.296875 
Q 45.40625 37.203125 41.296875 42.84375 
Q 37.203125 48.484375 30.078125 48.484375 
Q 22.953125 48.484375 18.875 42.84375 
Q 14.796875 37.203125 14.796875 27.296875 
z
" id="DejaVuSans-100"/>
     </defs>
     <use xlink:href="#DejaVuSans-80"/>
     <use x="56.677734" xlink:href="#DejaVuSans-111"/>
     <use x="117.859375" xlink:href="#DejaVuSans-108"/>
     <use x="145.642578" xlink:href="#DejaVuSans-121"/>
     <use x="204.822266" xlink:href="#DejaVuSans-103"/>
     <use x="268.298828" xlink:href="#DejaVuSans-111"/>
     <use x="329.480469" xlink:href="#DejaVuSans-110"/>
     <use x="392.859375" xlink:href="#DejaVuSans-97"/>
     <use x="454.138672" xlink:href="#DejaVuSans-108"/>
     <use x="481.921875" xlink:href="#DejaVuSans-32"/>
     <use x="513.708984" xlink:href="#DejaVuSans-98"/>
     <use x="577.185547" xlink:href="#DejaVuSans-111"/>
     <use x="638.367188" xlink:href="#DejaVuSans-100"/>
     <use x="701.84375" xlink:href="#DejaVuSans-121"/>
    </g>
   </g>
  </g>
 </g>
 <defs>
  <clipPath id="pac5d75a2db">
   <rect height="180.684" width="406.782" x="65.61" y="61.9488"/>
  </clipPath>
  <clipPath id="pa8481e5979">
   <rect height="180.684" width="406.782" x="65.61" y="278.7696"/>
  </clipPath>
 </defs>
</svg>
